999
DXF created from Luxology modo on Fri Sep 16 15:59:06 2011
  0
SECTION
  2
HEADER
  9
$ACADVER
  1
AC1006
  0
ENDSEC
  0
SECTION
  2
TABLES
  0
TABLE
  2
LTYPE
 70
1
  0
LTYPE
  2
CONTINUOUS
 70
64
  3
Solid line
 72
65
 73
0
 40
0.000000
  0
ENDTAB
  0
TABLE
  2
LAYER
  70
6
  0
LAYER
  2
Mesh
 70
64
 62
7
  6
CONTINUOUS
  0
LAYER
  2
Meshes
 70
64
 62
7
  6
CONTINUOUS
  0
ENDTAB
  0
ENDSEC
  0
SECTION
  2
BLOCKS
  0
ENDSEC
  0
SECTION
  2
ENTITIES
  0
POLYLINE
  8
Mesh
 66
1
 10
0.0
 20
0.0
 30
0.0
 70
64
 71
0
 72
0
  0
SEQEND
  0
POLYLINE
  8
Meshes
 66
1
 10
0.0
 20
0.0
 30
0.0
 70
64
 71
507
 72
436
  0
VERTEX
  8
Meshes
 10
2.8310394287109375
 20
1.0135859251022339
 30
4.7827897071838379
 70
192
  0
VERTEX
  8
Meshes
 10
-2.7385954856872559
 20
1.0135859251022339
 30
4.7827897071838379
 70
192
  0
VERTEX
  8
Meshes
 10
3.1385703086853027
 20
0.6797134876251221
 30
4.3164606094360352
 70
192
  0
VERTEX
  8
Meshes
 10
-3.0461263656616211
 20
0.6797134876251221
 30
4.3164606094360352
 70
192
  0
VERTEX
  8
Meshes
 10
3.4236371517181396
 20
0.4271816909313202
 30
3.6533737182617188
 70
192
  0
VERTEX
  8
Meshes
 10
-3.3311932086944580
 20
0.4271816909313202
 30
3.6533737182617188
 70
192
  0
VERTEX
  8
Meshes
 10
2.2771701812744141
 20
-0.0313987620174885
 30
3.8764672279357910
 70
192
  0
VERTEX
  8
Meshes
 10
-2.1847259998321533
 20
-0.0313987620174885
 30
3.8764672279357910
 70
192
  0
VERTEX
  8
Meshes
 10
2.2779507637023926
 20
0.3249315619468689
 30
4.4907550811767578
 70
192
  0
VERTEX
  8
Meshes
 10
-2.1855065822601318
 20
0.3249315619468689
 30
4.4907550811767578
 70
192
  0
VERTEX
  8
Meshes
 10
2.2825958728790283
 20
0.8005568981170654
 30
4.8912396430969238
 70
192
  0
VERTEX
  8
Meshes
 10
-2.1901516914367676
 20
0.8005568981170654
 30
4.8912396430969238
 70
192
  0
VERTEX
  8
Meshes
 10
1.7604937553405762
 20
1.0135859251022339
 30
4.9849734306335449
 70
192
  0
VERTEX
  8
Meshes
 10
-1.6680496931076050
 20
1.0135859251022339
 30
4.9849734306335449
 70
192
  0
VERTEX
  8
Meshes
 10
1.4212019443511963
 20
0.6797134876251221
 30
4.6270885467529297
 70
192
  0
VERTEX
  8
Meshes
 10
-1.3287578821182251
 20
0.6797134876251221
 30
4.6270885467529297
 70
192
  0
VERTEX
  8
Meshes
 10
1.1307094097137451
 20
0.4271816909313202
 30
4.0623807907104492
 70
192
  0
VERTEX
  8
Meshes
 10
-1.0382654666900635
 20
0.4271816909313202
 30
4.0623807907104492
 70
192
  0
VERTEX
  8
Meshes
 10
0.6659290790557861
 20
1.5364621877670288
 30
4.1181540489196777
 70
192
  0
VERTEX
  8
Meshes
 10
-0.5734850764274597
 20
1.5364621877670288
 30
4.1181540489196777
 70
192
  0
VERTEX
  8
Meshes
 10
1.0656458139419556
 20
1.5318170785903931
 30
4.6495528221130371
 70
192
  0
VERTEX
  8
Meshes
 10
-0.9732017517089844
 20
1.5318170785903931
 30
4.6495528221130371
 70
192
  0
VERTEX
  8
Meshes
 10
1.5474646091461182
 20
1.5356880426406860
 30
4.9981412887573242
 70
192
  0
VERTEX
  8
Meshes
 10
-1.4550206661224365
 20
1.5356880426406860
 30
4.9981412887573242
 70
192
  0
VERTEX
  8
Meshes
 10
1.7604937553405762
 20
2.0849058628082275
 30
4.9849734306335449
 70
192
  0
VERTEX
  8
Meshes
 10
-1.6680496931076050
 20
2.0849058628082275
 30
4.9849734306335449
 70
192
  0
VERTEX
  8
Meshes
 10
1.4212019443511963
 20
2.3916625976562500
 30
4.6270885467529297
 70
192
  0
VERTEX
  8
Meshes
 10
-1.3287578821182251
 20
2.3916625976562500
 30
4.6270885467529297
 70
192
  0
VERTEX
  8
Meshes
 10
1.1307094097137451
 20
2.6767294406890869
 30
4.0623807907104492
 70
192
  0
VERTEX
  8
Meshes
 10
-1.0382654666900635
 20
2.6767294406890869
 30
4.0623807907104492
 70
192
  0
VERTEX
  8
Meshes
 10
2.2771701812744141
 20
3.1415097713470459
 30
3.8764672279357910
 70
192
  0
VERTEX
  8
Meshes
 10
-2.1847259998321533
 20
3.1415097713470459
 30
3.8764672279357910
 70
192
  0
VERTEX
  8
Meshes
 10
2.2779507637023926
 20
2.7479929924011230
 30
4.4907550811767578
 70
192
  0
VERTEX
  8
Meshes
 10
-2.1855065822601318
 20
2.7479929924011230
 30
4.4907550811767578
 70
192
  0
VERTEX
  8
Meshes
 10
2.2825958728790283
 20
2.3033542633056641
 30
4.8912396430969238
 70
192
  0
VERTEX
  8
Meshes
 10
-2.1901516914367676
 20
2.3033542633056641
 30
4.8912396430969238
 70
192
  0
VERTEX
  8
Meshes
 10
2.8310394287109375
 20
2.0849058628082275
 30
4.7827897071838379
 70
192
  0
VERTEX
  8
Meshes
 10
-2.7385954856872559
 20
2.0849058628082275
 30
4.7827897071838379
 70
192
  0
VERTEX
  8
Meshes
 10
3.1385703086853027
 20
2.3916625976562500
 30
4.3164606094360352
 70
192
  0
VERTEX
  8
Meshes
 10
-3.0461263656616211
 20
2.3916625976562500
 30
4.3164606094360352
 70
192
  0
VERTEX
  8
Meshes
 10
3.4236371517181396
 20
2.6767294406890869
 30
3.6533737182617188
 70
192
  0
VERTEX
  8
Meshes
 10
-3.3311932086944580
 20
2.6767294406890869
 30
3.6533737182617188
 70
192
  0
VERTEX
  8
Meshes
 10
3.8884174823760986
 20
1.5364621877670288
 30
3.5604138374328613
 70
192
  0
VERTEX
  8
Meshes
 10
-3.7959735393524170
 20
1.5364621877670288
 30
3.5604138374328613
 70
192
  0
VERTEX
  8
Meshes
 10
3.4949007034301758
 20
1.5318170785903931
 30
4.2343459129333496
 70
192
  0
VERTEX
  8
Meshes
 10
-3.4024567604064941
 20
1.5318170785903931
 30
4.2343459129333496
 70
192
  0
VERTEX
  8
Meshes
 10
3.0456104278564453
 20
1.5356880426406860
 30
4.7332158088684082
 70
192
  0
VERTEX
  8
Meshes
 10
-2.9531664848327637
 20
1.5356880426406860
 30
4.7332158088684082
 70
192
  0
VERTEX
  8
Meshes
 10
2.9361324310302734
 20
1.5359482765197754
 30
4.9093122482299805
 70
192
  0
VERTEX
  8
Meshes
 10
-2.8436884880065918
 20
1.5359482765197754
 30
4.9093122482299805
 70
192
  0
VERTEX
  8
Meshes
 10
2.7592554092407227
 20
2.0172531604766846
 30
4.9529523849487305
 70
192
  0
VERTEX
  8
Meshes
 10
-2.6668114662170410
 20
2.0172531604766846
 30
4.9529523849487305
 70
192
  0
VERTEX
  8
Meshes
 10
2.2828559875488281
 20
2.2176284790039062
 30
5.0644993782043457
 70
192
  0
VERTEX
  8
Meshes
 10
-2.1904120445251465
 20
2.2176284790039062
 30
5.0644993782043457
 70
192
  0
VERTEX
  8
Meshes
 10
1.8289142847061157
 20
2.0172531604766846
 30
5.1468682289123535
 70
192
  0
VERTEX
  8
Meshes
 10
-1.7364703416824341
 20
2.0172531604766846
 30
5.1468682289123535
 70
192
  0
VERTEX
  8
Meshes
 10
1.6342246532440186
 20
1.5359482765197754
 30
5.1582336425781250
 70
192
  0
VERTEX
  8
Meshes
 10
-1.5417805910110474
 20
1.5359482765197754
 30
5.1582336425781250
 70
192
  0
VERTEX
  8
Meshes
 10
1.8289142847061157
 20
1.0820065736770630
 30
5.1468682289123535
 70
192
  0
VERTEX
  8
Meshes
 10
-1.7364703416824341
 20
1.0820065736770630
 30
5.1468682289123535
 70
192
  0
VERTEX
  8
Meshes
 10
2.2797529697418213
 20
1.5341396331787109
 30
5.1850824356079102
 70
192
  0
VERTEX
  8
Meshes
 10
-2.1873087882995605
 20
1.5341396331787109
 30
5.1850824356079102
 70
192
  0
VERTEX
  8
Meshes
 10
2.2828559875488281
 20
0.8873168826103210
 30
5.0644993782043457
 70
192
  0
VERTEX
  8
Meshes
 10
-2.1904120445251465
 20
0.8873168826103210
 30
5.0644993782043457
 70
192
  0
VERTEX
  8
Meshes
 10
2.7592554092407227
 20
1.0820065736770630
 30
4.9529523849487305
 70
192
  0
VERTEX
  8
Meshes
 10
-2.6668114662170410
 20
1.0820065736770630
 30
4.9529523849487305
 70
192
  0
VERTEX
  8
Meshes
 10
0.0462220013141632
 20
2.7402446269989014
 30
4.6418046951293945
 70
192
  0
VERTEX
  8
Meshes
 10
0.0462220013141632
 20
2.2298505306243896
 30
5.1041798591613770
 70
192
  0
VERTEX
  8
Meshes
 10
0.0462220013141632
 20
-4.2020411491394043
 30
4.6387076377868652
 70
192
  0
VERTEX
  8
Meshes
 10
0.0462220013141632
 20
-1.9493966102600098
 30
4.9113812446594238
 70
192
  0
VERTEX
  8
Meshes
 10
0.0462220013141632
 20
-1.1189893484115601
 30
4.9872961044311523
 70
192
  0
VERTEX
  8
Meshes
 10
0.0462220013141632
 20
-4.8620314598083496
 30
4.5008258819580078
 70
192
  0
VERTEX
  8
Meshes
 10
0.0462220013141632
 20
2.7794935703277588
 30
3.8857638835906982
 70
192
  0
VERTEX
  8
Meshes
 10
0.0462220013141632
 20
3.5886168479919434
 30
3.4364736080169678
 70
192
  0
VERTEX
  8
Meshes
 10
0.0462220013141632
 20
5.4235858917236328
 30
-3.1479332447052002
 70
192
  0
VERTEX
  8
Meshes
 10
0.0462220013141632
 20
3.2809400558471680
 30
-4.9357910156250000
 70
192
  0
VERTEX
  8
Meshes
 10
0.0462220013141632
 20
0.5852115750312805
 30
-4.9326944351196289
 70
192
  0
VERTEX
  8
Meshes
 10
0.0462220013141632
 20
-2.2422115802764893
 30
-1.9673893451690674
 70
192
  0
VERTEX
  8
Meshes
 10
1.4862718582153320
 20
-1.1313827037811279
 30
3.6309094429016113
 70
192
  0
VERTEX
  8
Meshes
 10
-1.3938279151916504
 20
-1.1313827037811279
 30
3.6309094429016113
 70
192
  0
VERTEX
  8
Meshes
 10
1.8782340288162231
 20
-2.8200871944427490
 30
3.5557687282562256
 70
192
  0
VERTEX
  8
Meshes
 10
-1.7857899665832520
 20
-2.8200871944427490
 30
3.5557687282562256
 70
192
  0
VERTEX
  8
Meshes
 10
2.1021080017089844
 20
-4.2252793312072754
 30
3.5131628513336182
 70
192
  0
VERTEX
  8
Meshes
 10
-2.0096640586853027
 20
-4.2252793312072754
 30
3.5131628513336182
 70
192
  0
VERTEX
  8
Meshes
 10
2.1966099739074707
 20
-5.3732886314392090
 30
3.3450684547424316
 70
192
  0
VERTEX
  8
Meshes
 10
-2.1041660308837891
 20
-5.3732886314392090
 30
3.3450684547424316
 70
192
  0
VERTEX
  8
Meshes
 10
1.9649939537048340
 20
-5.9124355316162109
 30
3.3040111064910889
 70
192
  0
VERTEX
  8
Meshes
 10
-1.8725500106811523
 20
-5.9124355316162109
 30
3.3040111064910889
 70
192
  0
VERTEX
  8
Meshes
 10
1.1338125467300415
 20
-6.0998973846435547
 30
3.4496412277221680
 70
192
  0
VERTEX
  8
Meshes
 10
-1.0413684844970703
 20
-6.0998973846435547
 30
3.4496412277221680
 70
192
  0
VERTEX
  8
Meshes
 10
0.0462220013141632
 20
-6.1882057189941406
 30
3.5573170185089111
 70
192
  0
VERTEX
  8
Meshes
 10
2.7558984756469727
 20
-0.7487108707427979
 30
3.4294996261596680
 70
192
  0
VERTEX
  8
Meshes
 10
-2.6634545326232910
 20
-0.7487108707427979
 30
3.4294996261596680
 70
192
  0
VERTEX
  8
Meshes
 10
4.0146803855895996
 20
-0.0863979607820511
 30
3.2993659973144531
 70
192
  0
VERTEX
  8
Meshes
 10
-3.9222362041473389
 20
-0.0863979607820511
 30
3.2993659973144531
 70
192
  0
VERTEX
  8
Meshes
 10
5.0557937622070312
 20
1.0569659471511841
 30
3.0243699550628662
 70
192
  0
VERTEX
  8
Meshes
 10
-4.9633498191833496
 20
1.0569659471511841
 30
3.0243699550628662
 70
192
  0
VERTEX
  8
Meshes
 10
5.2293076515197754
 20
2.4908161163330078
 30
3.6045680046081543
 70
192
  0
VERTEX
  8
Meshes
 10
-5.1368637084960938
 20
2.4908161163330078
 30
3.6045680046081543
 70
192
  0
VERTEX
  8
Meshes
 10
4.4453773498535156
 20
3.0384790897369385
 30
3.9291439056396484
 70
192
  0
VERTEX
  8
Meshes
 10
-4.3529329299926758
 20
3.0384790897369385
 30
3.9291439056396484
 70
192
  0
VERTEX
  8
Meshes
 10
3.1649055480957031
 20
3.7526943683624268
 30
4.2955451011657715
 70
192
  0
VERTEX
  8
Meshes
 10
-3.0724616050720215
 20
3.7526943683624268
 30
4.2955451011657715
 70
192
  0
VERTEX
  8
Meshes
 10
2.0920372009277344
 20
4.5102896690368652
 30
4.5775151252746582
 70
192
  0
VERTEX
  8
Meshes
 10
-1.9995932579040527
 20
4.5102896690368652
 30
4.5775151252746582
 70
192
  0
VERTEX
  8
Meshes
 10
1.1539541482925415
 20
4.2848734855651855
 30
4.7138485908508301
 70
192
  0
VERTEX
  8
Meshes
 10
-1.0615102052688599
 20
4.2848734855651855
 30
4.7138485908508301
 70
192
  0
VERTEX
  8
Meshes
 10
0.5272729992866516
 20
3.1655223369598389
 30
4.6867327690124512
 70
192
  0
VERTEX
  8
Meshes
 10
-0.4348289966583252
 20
3.1655223369598389
 30
4.6867327690124512
 70
192
  0
VERTEX
  8
Meshes
 10
1.1059226989746094
 20
2.5775759220123291
 30
4.9199037551879883
 70
192
  0
VERTEX
  8
Meshes
 10
-1.0134786367416382
 20
2.5775759220123291
 30
4.9199037551879883
 70
192
  0
VERTEX
  8
Meshes
 10
0.8239589929580688
 20
1.9609656333923340
 30
4.8772978782653809
 70
192
  0
VERTEX
  8
Meshes
 10
-0.7315149903297424
 20
1.9609656333923340
 30
4.8772978782653809
 70
192
  0
VERTEX
  8
Meshes
 10
1.3964151144027710
 20
0.4473233222961426
 30
4.7169451713562012
 70
192
  0
VERTEX
  8
Meshes
 10
-1.3039711713790894
 20
0.4473233222961426
 30
4.7169451713562012
 70
192
  0
VERTEX
  8
Meshes
 10
2.4018907546997070
 20
0.1676822155714035
 30
4.4496974945068359
 70
192
  0
VERTEX
  8
Meshes
 10
-2.3094468116760254
 20
0.1676822155714035
 30
4.4496974945068359
 70
192
  0
VERTEX
  8
Meshes
 10
3.2547621726989746
 20
0.4713358879089355
 30
4.2351202964782715
 70
192
  0
VERTEX
  8
Meshes
 10
-3.1623182296752930
 20
0.4713358879089355
 30
4.2351202964782715
 70
192
  0
VERTEX
  8
Meshes
 10
3.9674291610717773
 20
1.1948478221893311
 30
4.0949158668518066
 70
192
  0
VERTEX
  8
Meshes
 10
-3.8749852180480957
 20
1.1948478221893311
 30
4.0949158668518066
 70
192
  0
VERTEX
  8
Meshes
 10
4.1060914993286133
 20
1.8982182741165161
 30
4.1289992332458496
 70
192
  0
VERTEX
  8
Meshes
 10
-4.0136475563049316
 20
1.8982182741165161
 30
4.1289992332458496
 70
192
  0
VERTEX
  8
Meshes
 10
3.7908124923706055
 20
2.3839144706726074
 30
4.2846999168395996
 70
192
  0
VERTEX
  8
Meshes
 10
-3.6983685493469238
 20
2.3839144706726074
 30
4.2846999168395996
 70
192
  0
VERTEX
  8
Meshes
 10
2.8325877189636230
 20
2.8060889244079590
 30
4.6015276908874512
 70
192
  0
VERTEX
  8
Meshes
 10
-2.7401437759399414
 20
2.8060889244079590
 30
4.6015276908874512
 70
192
  0
VERTEX
  8
Meshes
 10
1.6102120876312256
 20
3.0005247592926025
 30
4.8587045669555664
 70
192
  0
VERTEX
  8
Meshes
 10
-1.5177680253982544
 20
3.0005247592926025
 30
4.8587045669555664
 70
192
  0
VERTEX
  8
Meshes
 10
0.0462220013141632
 20
-4.7427363395690918
 30
4.6154694557189941
 70
192
  0
VERTEX
  8
Meshes
 10
0.7601264119148254
 20
-4.6846723556518555
 30
4.5757446289062500
 70
192
  0
VERTEX
  8
Meshes
 10
-0.6676824092864990
 20
-4.6846723556518555
 30
4.5757446289062500
 70
192
  0
VERTEX
  8
Meshes
 10
0.8185333013534546
 20
-5.3082184791564941
 30
4.4225883483886719
 70
192
  0
VERTEX
  8
Meshes
 10
-0.7260892987251282
 20
-5.3082184791564941
 30
4.4225883483886719
 70
192
  0
VERTEX
  8
Meshes
 10
0.4970605671405792
 20
-5.6064529418945312
 30
4.3304023742675781
 70
192
  0
VERTEX
  8
Meshes
 10
-0.4046165645122528
 20
-5.6064529418945312
 30
4.3304023742675781
 70
192
  0
VERTEX
  8
Meshes
 10
0.0462220013141632
 20
-5.6754002571105957
 30
4.2994160652160645
 70
192
  0
VERTEX
  8
Meshes
 10
0.0462220013141632
 20
-1.0415259599685669
 30
4.8432145118713379
 70
192
  0
VERTEX
  8
Meshes
 10
0.0462220013141632
 20
-0.8597436547279358
 30
4.7089433670043945
 70
192
  0
VERTEX
  8
Meshes
 10
0.6558582782745361
 20
-0.9485723972320557
 30
4.7502546310424805
 70
192
  0
VERTEX
  8
Meshes
 10
-0.5634142756462097
 20
-0.9485723972320557
 30
4.7502546310424805
 70
192
  0
VERTEX
  8
Meshes
 10
0.8309267163276672
 20
-1.4358168840408325
 30
4.7293386459350586
 70
192
  0
VERTEX
  8
Meshes
 10
-0.7384827136993408
 20
-1.4358168840408325
 30
4.7293386459350586
 70
192
  0
VERTEX
  8
Meshes
 10
0.6143693327903748
 20
-1.9093672037124634
 30
4.6872911453247070
 70
192
  0
VERTEX
  8
Meshes
 10
-0.5219253301620483
 20
-1.9093672037124634
 30
4.6872911453247070
 70
192
  0
VERTEX
  8
Meshes
 10
2.5451984405517578
 20
-0.2831563651561737
 30
4.2033658027648926
 70
192
  0
VERTEX
  8
Meshes
 10
-2.4527544975280762
 20
-0.2831563651561737
 30
4.2033658027648926
 70
192
  0
VERTEX
  8
Meshes
 10
3.8125023841857910
 20
0.3164091110229492
 30
3.9059054851531982
 70
192
  0
VERTEX
  8
Meshes
 10
-3.7200584411621094
 20
0.3164091110229492
 30
3.9059054851531982
 70
192
  0
VERTEX
  8
Meshes
 10
4.5731945037841797
 20
1.2482986450195312
 30
3.7695655822753906
 70
192
  0
VERTEX
  8
Meshes
 10
-4.4807505607604980
 20
1.2482986450195312
 30
3.7695655822753906
 70
192
  0
VERTEX
  8
Meshes
 10
4.7033348083496094
 20
2.2499034404754639
 30
4.0739998817443848
 70
192
  0
VERTEX
  8
Meshes
 10
-4.6108903884887695
 20
2.2499034404754639
 30
4.0739998817443848
 70
192
  0
VERTEX
  8
Meshes
 10
4.2230577468872070
 20
2.7061612606048584
 30
4.4535684585571289
 70
192
  0
VERTEX
  8
Meshes
 10
-4.1306138038635254
 20
2.7061612606048584
 30
4.4535684585571289
 70
192
  0
VERTEX
  8
Meshes
 10
2.9456830024719238
 20
3.3986866474151611
 30
4.8509564399719238
 70
192
  0
VERTEX
  8
Meshes
 10
-2.8532388210296631
 20
3.3986866474151611
 30
4.8509564399719238
 70
192
  0
VERTEX
  8
Meshes
 10
2.0602765083312988
 20
3.9277627468109131
 30
5.0988430976867676
 70
192
  0
VERTEX
  8
Meshes
 10
-1.9678324460983276
 20
3.9277627468109131
 30
5.0988430976867676
 70
192
  0
VERTEX
  8
Meshes
 10
1.3460611104965210
 20
3.7519202232360840
 30
5.2041897773742676
 70
192
  0
VERTEX
  8
Meshes
 10
-1.2536170482635498
 20
3.7519202232360840
 30
5.2041897773742676
 70
192
  0
VERTEX
  8
Meshes
 10
0.7170573472976685
 20
2.8332045078277588
 30
5.1786289215087891
 70
192
  0
VERTEX
  8
Meshes
 10
-0.6246133446693420
 20
2.8332045078277588
 30
5.1786289215087891
 70
192
  0
VERTEX
  8
Meshes
 10
0.9499615430831909
 20
-0.6177141666412354
 30
4.8948564529418945
 70
192
  0
VERTEX
  8
Meshes
 10
-0.8575175404548645
 20
-0.6177141666412354
 30
4.8948564529418945
 70
192
  0
VERTEX
  8
Meshes
 10
1.3677511215209961
 20
-2.9223434925079346
 30
4.3792080879211426
 70
192
  0
VERTEX
  8
Meshes
 10
-1.2753070592880249
 20
-2.9223434925079346
 30
4.3792080879211426
 70
192
  0
VERTEX
  8
Meshes
 10
1.5869736671447754
 20
-4.3391485214233398
 30
4.2707581520080566
 70
192
  0
VERTEX
  8
Meshes
 10
-1.4945297241210938
 20
-4.3391485214233398
 30
4.2707581520080566
 70
192
  0
VERTEX
  8
Meshes
 10
1.6566888093948364
 20
-5.1680078506469727
 30
4.1266765594482422
 70
192
  0
VERTEX
  8
Meshes
 10
-1.5642448663711548
 20
-5.1680078506469727
 30
4.1266765594482422
 70
192
  0
VERTEX
  8
Meshes
 10
1.4746527671813965
 20
-5.7133545875549316
 30
3.9802658557891846
 70
192
  0
VERTEX
  8
Meshes
 10
-1.3822087049484253
 20
-5.7133545875549316
 30
3.9802658557891846
 70
192
  0
VERTEX
  8
Meshes
 10
0.9595183134078979
 20
-5.8953967094421387
 30
3.9740722179412842
 70
192
  0
VERTEX
  8
Meshes
 10
-0.8670743107795715
 20
-5.8953967094421387
 30
3.9740722179412842
 70
192
  0
VERTEX
  8
Meshes
 10
0.0462220013141632
 20
-5.9697570800781250
 30
4.0066070556640625
 70
192
  0
VERTEX
  8
Meshes
 10
0.0462220013141632
 20
0.2571074664592743
 30
4.6545467376708984
 70
192
  0
VERTEX
  8
Meshes
 10
0.0462220013141632
 20
1.3226653337478638
 30
4.8215246200561523
 70
192
  0
VERTEX
  8
Meshes
 10
2.1400623321533203
 20
3.0671432018280029
 30
4.7587771415710449
 70
192
  0
VERTEX
  8
Meshes
 10
-2.0476183891296387
 20
3.0671432018280029
 30
4.7587771415710449
 70
192
  0
VERTEX
  8
Meshes
 10
0.9951500892639160
 20
0.8408401608467102
 30
4.7394094467163086
 70
192
  0
VERTEX
  8
Meshes
 10
-0.9027060866355896
 20
0.8408401608467102
 30
4.7394094467163086
 70
192
  0
VERTEX
  8
Meshes
 10
0.8309267163276672
 20
1.3513230085372925
 30
4.8006086349487305
 70
192
  0
VERTEX
  8
Meshes
 10
-0.7384827136993408
 20
1.3513230085372925
 30
4.8006086349487305
 70
192
  0
VERTEX
  8
Meshes
 10
0.7720565199851990
 20
-4.2214083671569824
 30
4.5999794006347656
 70
192
  0
VERTEX
  8
Meshes
 10
-0.6796125769615173
 20
-4.2214083671569824
 30
4.5999794006347656
 70
192
  0
VERTEX
  8
Meshes
 10
0.6140329837799072
 20
-2.9076213836669922
 30
4.6758942604064941
 70
192
  0
VERTEX
  8
Meshes
 10
-0.5215890407562256
 20
-2.9076213836669922
 30
4.6758942604064941
 70
192
  0
VERTEX
  8
Meshes
 10
0.0462220013141632
 20
-2.9192404747009277
 30
4.7068743705749512
 70
192
  0
VERTEX
  8
Meshes
 10
0.0462220013141632
 20
-2.1198198795318604
 30
4.7130742073059082
 70
192
  0
VERTEX
  8
Meshes
 10
0.5807238221168518
 20
-1.7348254919052124
 30
4.9237747192382812
 70
192
  0
VERTEX
  8
Meshes
 10
-0.4882798194885254
 20
-1.7348254919052124
 30
4.9237747192382812
 70
192
  0
VERTEX
  8
Meshes
 10
0.8162107467651367
 20
-1.4102495908737183
 30
4.9865221977233887
 70
192
  0
VERTEX
  8
Meshes
 10
-0.7237667441368103
 20
-1.4102495908737183
 30
4.9865221977233887
 70
192
  0
VERTEX
  8
Meshes
 10
0.6829739809036255
 20
-0.9446951150894165
 30
4.9291939735412598
 70
192
  0
VERTEX
  8
Meshes
 10
-0.5905299782752991
 20
-0.9446951150894165
 30
4.9291939735412598
 70
192
  0
VERTEX
  8
Meshes
 10
0.2979795932769775
 20
-0.8850507736206055
 30
4.9291939735412598
 70
192
  0
VERTEX
  8
Meshes
 10
-0.2055355906486511
 20
-0.8850507736206055
 30
4.9291939735412598
 70
192
  0
VERTEX
  8
Meshes
 10
0.0462220013141632
 20
-1.2907832860946655
 30
5.1909399032592773
 70
192
  0
VERTEX
  8
Meshes
 10
0.3491903543472290
 20
-1.0077852010726929
 30
5.1000485420227051
 70
192
  0
VERTEX
  8
Meshes
 10
-0.2567463517189026
 20
-1.0077852010726929
 30
5.1000485420227051
 70
192
  0
VERTEX
  8
Meshes
 10
0.6053392291069031
 20
-1.0546109676361084
 30
5.1000485420227051
 70
192
  0
VERTEX
  8
Meshes
 10
-0.5128952264785767
 20
-1.0546109676361084
 30
5.1000485420227051
 70
192
  0
VERTEX
  8
Meshes
 10
0.6426907181739807
 20
-1.3963078260421753
 30
5.1662354469299316
 70
192
  0
VERTEX
  8
Meshes
 10
-0.5502467155456543
 20
-1.3963078260421753
 30
5.1662354469299316
 70
192
  0
VERTEX
  8
Meshes
 10
0.4910320341587067
 20
-1.6343774795532227
 30
5.0711245536804199
 70
192
  0
VERTEX
  8
Meshes
 10
-0.3985880315303802
 20
-1.6343774795532227
 30
5.0711245536804199
 70
192
  0
VERTEX
  8
Meshes
 10
0.0462220013141632
 20
-1.7464447021484375
 30
5.0725078582763672
 70
192
  0
VERTEX
  8
Meshes
 10
1.6102120876312256
 20
-2.0098214149475098
 30
3.5216853618621826
 70
192
  0
VERTEX
  8
Meshes
 10
-1.5177680253982544
 20
-2.0098214149475098
 30
3.5216853618621826
 70
192
  0
VERTEX
  8
Meshes
 10
1.0912066698074341
 20
-1.4939128160476685
 30
4.4442720413208008
 70
192
  0
VERTEX
  8
Meshes
 10
-0.9987627267837524
 20
-1.4939128160476685
 30
4.4442720413208008
 70
192
  0
VERTEX
  8
Meshes
 10
1.1895859241485596
 20
-2.0237631797790527
 30
4.3815307617187500
 70
192
  0
VERTEX
  8
Meshes
 10
-1.0971419811248779
 20
-2.0237631797790527
 30
4.3815307617187500
 70
192
  0
VERTEX
  8
Meshes
 10
1.4521884918212891
 20
-1.5613054037094116
 30
3.5557687282562256
 70
192
  0
VERTEX
  8
Meshes
 10
-1.3597445487976074
 20
-1.5613054037094116
 30
3.5557687282562256
 70
192
  0
VERTEX
  8
Meshes
 10
0.0462220013141632
 20
-5.5468087196350098
 30
4.2870225906372070
 70
192
  0
VERTEX
  8
Meshes
 10
0.3553013503551483
 20
-5.4794158935546875
 30
4.3071641921997070
 70
192
  0
VERTEX
  8
Meshes
 10
-0.2628573775291443
 20
-5.4794158935546875
 30
4.3071641921997070
 70
192
  0
VERTEX
  8
Meshes
 10
0.6210007071495056
 20
-5.1904783248901367
 30
4.4194850921630859
 70
192
  0
VERTEX
  8
Meshes
 10
-0.5285567045211792
 20
-5.1904783248901367
 30
4.4194850921630859
 70
192
  0
VERTEX
  8
Meshes
 10
0.5783948898315430
 20
-4.7946386337280273
 30
4.5139932632446289
 70
192
  0
VERTEX
  8
Meshes
 10
-0.4859509170055389
 20
-4.7946386337280273
 30
4.5139932632446289
 70
192
  0
VERTEX
  8
Meshes
 10
0.0462220013141632
 20
-4.9751267433166504
 30
4.1723790168762207
 70
192
  0
VERTEX
  8
Meshes
 10
0.5373438000679016
 20
-4.9030823707580566
 30
4.1852865219116211
 70
192
  0
VERTEX
  8
Meshes
 10
-0.4448998272418976
 20
-4.9030823707580566
 30
4.1852865219116211
 70
192
  0
VERTEX
  8
Meshes
 10
0.5805461406707764
 20
-5.1419324874877930
 30
4.1466150283813477
 70
192
  0
VERTEX
  8
Meshes
 10
-0.4881021380424500
 20
-5.1419324874877930
 30
4.1466150283813477
 70
192
  0
VERTEX
  8
Meshes
 10
0.3700173199176788
 20
-5.3283600807189941
 30
4.0543723106384277
 70
192
  0
VERTEX
  8
Meshes
 10
-0.2775733172893524
 20
-5.3283600807189941
 30
4.0543723106384277
 70
192
  0
VERTEX
  8
Meshes
 10
0.0462220013141632
 20
-5.3934302330017090
 30
4.0453357696533203
 70
192
  0
VERTEX
  8
Meshes
 10
1.1415544748306274
 20
1.3947030305862427
 30
4.8765234947204590
 70
192
  0
VERTEX
  8
Meshes
 10
-1.0491104125976562
 20
1.3947030305862427
 30
4.8765234947204590
 70
192
  0
VERTEX
  8
Meshes
 10
1.2476818561553955
 20
0.9973152875900269
 30
4.8470854759216309
 70
192
  0
VERTEX
  8
Meshes
 10
-1.1552379131317139
 20
0.9973152875900269
 30
4.8470854759216309
 70
192
  0
VERTEX
  8
Meshes
 10
2.1904163360595703
 20
2.7084839344024658
 30
4.7758216857910156
 70
192
  0
VERTEX
  8
Meshes
 10
-2.0979723930358887
 20
2.7084839344024658
 30
4.7758216857910156
 70
192
  0
VERTEX
  8
Meshes
 10
1.7690098285675049
 20
2.6581361293792725
 30
4.8486337661743164
 70
192
  0
VERTEX
  8
Meshes
 10
-1.6765657663345337
 20
2.6581361293792725
 30
4.8486337661743164
 70
192
  0
VERTEX
  8
Meshes
 10
2.7667436599731445
 20
2.5310928821563721
 30
4.7463836669921875
 70
192
  0
VERTEX
  8
Meshes
 10
-2.6742994785308838
 20
2.5310928821563721
 30
4.7463836669921875
 70
192
  0
VERTEX
  8
Meshes
 10
3.5297582149505615
 20
2.2196910381317139
 30
4.3931498527526855
 70
192
  0
VERTEX
  8
Meshes
 10
-3.4373142719268799
 20
2.2196910381317139
 30
4.3931498527526855
 70
192
  0
VERTEX
  8
Meshes
 10
3.7559549808502197
 20
1.8044841289520264
 30
4.2877969741821289
 70
192
  0
VERTEX
  8
Meshes
 10
-3.6635107994079590
 20
1.8044841289520264
 30
4.2877969741821289
 70
192
  0
VERTEX
  8
Meshes
 10
3.6521499156951904
 20
1.2351311445236206
 30
4.2816033363342285
 70
192
  0
VERTEX
  8
Meshes
 10
-3.5597059726715088
 20
1.2351311445236206
 30
4.2816033363342285
 70
192
  0
VERTEX
  8
Meshes
 10
3.0719518661499023
 20
0.6657717227935791
 30
4.4682908058166504
 70
192
  0
VERTEX
  8
Meshes
 10
-2.9795079231262207
 20
0.6657717227935791
 30
4.4682908058166504
 70
192
  0
VERTEX
  8
Meshes
 10
2.3879489898681641
 20
0.4419040083885193
 30
4.6433591842651367
 70
192
  0
VERTEX
  8
Meshes
 10
-2.2955050468444824
 20
0.4419040083885193
 30
4.6433591842651367
 70
192
  0
VERTEX
  8
Meshes
 10
1.5652836561203003
 20
0.6851391792297363
 30
4.8393368721008301
 70
192
  0
VERTEX
  8
Meshes
 10
-1.4728397130966187
 20
0.6851391792297363
 30
4.8393368721008301
 70
192
  0
VERTEX
  8
Meshes
 10
1.1779667139053345
 20
1.8842765092849731
 30
4.8920135498046875
 70
192
  0
VERTEX
  8
Meshes
 10
-1.0855227708816528
 20
1.8842765092849731
 30
4.8920135498046875
 70
192
  0
VERTEX
  8
Meshes
 10
1.3902152776718140
 20
2.3653211593627930
 30
4.8927879333496094
 70
192
  0
VERTEX
  8
Meshes
 10
-1.2977712154388428
 20
2.3653211593627930
 30
4.8927879333496094
 70
192
  0
VERTEX
  8
Meshes
 10
1.5397226810455322
 20
2.2553226947784424
 30
4.7812409400939941
 70
192
  0
VERTEX
  8
Meshes
 10
-1.4472787380218506
 20
2.2553226947784424
 30
4.7812409400939941
 70
192
  0
VERTEX
  8
Meshes
 10
1.3166228532791138
 20
1.8711025714874268
 30
4.7688479423522949
 70
192
  0
VERTEX
  8
Meshes
 10
-1.2241787910461426
 20
1.8711025714874268
 30
4.7688479423522949
 70
192
  0
VERTEX
  8
Meshes
 10
1.6574629545211792
 20
0.7928149700164795
 30
4.7440609931945801
 70
192
  0
VERTEX
  8
Meshes
 10
-1.5650190114974976
 20
0.7928149700164795
 30
4.7440609931945801
 70
192
  0
VERTEX
  8
Meshes
 10
2.3887231349945068
 20
0.5945082306861877
 30
4.5829343795776367
 70
192
  0
VERTEX
  8
Meshes
 10
-2.2962791919708252
 20
0.5945082306861877
 30
4.5829343795776367
 70
192
  0
VERTEX
  8
Meshes
 10
2.9712502956390381
 20
0.7866151332855225
 30
4.4218077659606934
 70
192
  0
VERTEX
  8
Meshes
 10
-2.8788061141967773
 20
0.7866151332855225
 30
4.4218077659606934
 70
192
  0
VERTEX
  8
Meshes
 10
3.4546175003051758
 20
1.3133686780929565
 30
4.2544875144958496
 70
192
  0
VERTEX
  8
Meshes
 10
-3.3621733188629150
 20
1.3133686780929565
 30
4.2544875144958496
 70
192
  0
VERTEX
  8
Meshes
 10
3.5413775444030762
 20
1.7657556533813477
 30
4.2359008789062500
 70
192
  0
VERTEX
  8
Meshes
 10
-3.4489333629608154
 20
1.7657556533813477
 30
4.2359008789062500
 70
192
  0
VERTEX
  8
Meshes
 10
3.3430707454681396
 20
2.1251890659332275
 30
4.3288540840148926
 70
192
  0
VERTEX
  8
Meshes
 10
-3.2506265640258789
 20
2.1251890659332275
 30
4.3288540840148926
 70
192
  0
VERTEX
  8
Meshes
 10
2.7047703266143799
 20
2.4412362575531006
 30
4.6696944236755371
 70
192
  0
VERTEX
  8
Meshes
 10
-2.6123263835906982
 20
2.4412362575531006
 30
4.6696944236755371
 70
192
  0
VERTEX
  8
Meshes
 10
1.8371828794479370
 20
2.4970095157623291
 30
4.8060278892517090
 70
192
  0
VERTEX
  8
Meshes
 10
-1.7447389364242554
 20
2.4970095157623291
 30
4.8060278892517090
 70
192
  0
VERTEX
  8
Meshes
 10
2.1966099739074707
 20
2.5527830123901367
 30
4.7378611564636230
 70
192
  0
VERTEX
  8
Meshes
 10
-2.1041660308837891
 20
2.5527830123901367
 30
4.7378611564636230
 70
192
  0
VERTEX
  8
Meshes
 10
1.3600028753280640
 20
1.0902751684188843
 30
4.7316675186157227
 70
192
  0
VERTEX
  8
Meshes
 10
-1.2675588130950928
 20
1.0902751684188843
 30
4.7316675186157227
 70
192
  0
VERTEX
  8
Meshes
 10
1.2918360233306885
 20
1.4435087442398071
 30
4.7316675186157227
 70
192
  0
VERTEX
  8
Meshes
 10
-1.1993920803070068
 20
1.4435087442398071
 30
4.7316675186157227
 70
192
  0
VERTEX
  8
Meshes
 10
0.8427553176879883
 20
3.0980472564697266
 30
3.8553991317749023
 70
192
  0
VERTEX
  8
Meshes
 10
-0.7503113150596619
 20
3.0980472564697266
 30
3.8553991317749023
 70
192
  0
VERTEX
  8
Meshes
 10
1.3517405986785889
 20
4.0421524047851562
 30
4.0313940048217773
 70
192
  0
VERTEX
  8
Meshes
 10
-1.2592965364456177
 20
4.0421524047851562
 30
4.0313940048217773
 70
192
  0
VERTEX
  8
Meshes
 10
2.1256890296936035
 20
4.2156724929809570
 30
3.9143390655517578
 70
192
  0
VERTEX
  8
Meshes
 10
-2.0332450866699219
 20
4.2156724929809570
 30
3.9143390655517578
 70
192
  0
VERTEX
  8
Meshes
 10
2.9533994197845459
 20
3.5054042339324951
 30
3.5043928623199463
 70
192
  0
VERTEX
  8
Meshes
 10
-2.8609554767608643
 20
3.5054042339324951
 30
3.5043928623199463
 70
192
  0
VERTEX
  8
Meshes
 10
4.2858052253723145
 20
2.9346804618835449
 30
3.0692982673645020
 70
192
  0
VERTEX
  8
Meshes
 10
-4.1933612823486328
 20
2.9346804618835449
 30
3.0692982673645020
 70
192
  0
VERTEX
  8
Meshes
 10
4.9984722137451172
 20
2.4389135837554932
 30
2.8198633193969727
 70
192
  0
VERTEX
  8
Meshes
 10
-4.9060282707214355
 20
2.4389135837554932
 30
2.8198633193969727
 70
192
  0
VERTEX
  8
Meshes
 10
4.9310731887817383
 20
1.1228101253509521
 30
2.2752969264984131
 70
192
  0
VERTEX
  8
Meshes
 10
-4.8386292457580566
 20
1.1228101253509521
 30
2.2752969264984131
 70
192
  0
VERTEX
  8
Meshes
 10
3.9774999618530273
 20
-0.0089345686137676
 30
2.4255723953247070
 70
192
  0
VERTEX
  8
Meshes
 10
-3.8850560188293457
 20
-0.0089345686137676
 30
2.4255723953247070
 70
192
  0
VERTEX
  8
Meshes
 10
2.6903145313262939
 20
-0.7096079587936401
 30
2.8169314861297607
 70
192
  0
VERTEX
  8
Meshes
 10
-2.5978705883026123
 20
-0.7096079587936401
 30
2.8169314861297607
 70
192
  0
VERTEX
  8
Meshes
 10
0.0462220013141632
 20
5.4266829490661621
 30
1.6408675909042358
 70
192
  0
VERTEX
  8
Meshes
 10
0.0462220013141632
 20
6.0231513977050781
 30
-0.5792418122291565
 70
192
  0
VERTEX
  8
Meshes
 10
0.0462220013141632
 20
-1.1174409389495850
 30
-3.9597473144531250
 70
192
  0
VERTEX
  8
Meshes
 10
0.0462220013141632
 20
-2.7767071723937988
 30
0.7872219681739807
 70
192
  0
VERTEX
  8
Meshes
 10
0.0462220013141632
 20
-6.0239820480346680
 30
2.8632433414459229
 70
192
  0
VERTEX
  8
Meshes
 10
0.0462220013141632
 20
-4.9952683448791504
 30
2.2528328895568848
 70
192
  0
VERTEX
  8
Meshes
 10
0.0462220013141632
 20
-3.6830356121063232
 30
2.0328359603881836
 70
192
  0
VERTEX
  8
Meshes
 10
0.0462220013141632
 20
-3.0261421203613281
 30
1.6826993227005005
 70
192
  0
VERTEX
  8
Meshes
 10
5.2161402702331543
 20
1.4280122518539429
 30
0.6903911828994751
 70
192
  0
VERTEX
  8
Meshes
 10
-5.1236958503723145
 20
1.4280122518539429
 30
0.6903911828994751
 70
192
  0
VERTEX
  8
Meshes
 10
5.3534064292907715
 20
1.9030854701995850
 30
-0.3501959145069122
 70
192
  0
VERTEX
  8
Meshes
 10
-5.2609624862670898
 20
1.9030854701995850
 30
-0.3501959145069122
 70
192
  0
VERTEX
  8
Meshes
 10
4.8868875503540039
 20
1.7885625362396240
 30
-2.6912059783935547
 70
192
  0
VERTEX
  8
Meshes
 10
-4.7944431304931641
 20
1.7885625362396240
 30
-2.6912059783935547
 70
192
  0
VERTEX
  8
Meshes
 10
2.6397004127502441
 20
2.7991211414337158
 30
-4.2564334869384766
 70
192
  0
VERTEX
  8
Meshes
 10
-2.5472562313079834
 20
2.7991211414337158
 30
-4.2564334869384766
 70
192
  0
VERTEX
  8
Meshes
 10
4.4902739524841309
 20
-0.2128510475158691
 30
0.4281566143035889
 70
192
  0
VERTEX
  8
Meshes
 10
-4.3978300094604492
 20
-0.2128510475158691
 30
0.4281566143035889
 70
192
  0
VERTEX
  8
Meshes
 10
3.9558417797088623
 20
-0.7016756534576416
 30
-1.0997955799102783
 70
192
  0
VERTEX
  8
Meshes
 10
-3.8633978366851807
 20
-0.7016756534576416
 30
-1.0997955799102783
 70
192
  0
VERTEX
  8
Meshes
 10
4.1696071624755859
 20
0.0259230043739080
 30
-2.5754771232604980
 70
192
  0
VERTEX
  8
Meshes
 10
-4.0771627426147461
 20
0.0259230043739080
 30
-2.5754771232604980
 70
192
  0
VERTEX
  8
Meshes
 10
2.1119186878204346
 20
0.4829550981521606
 30
-4.2282896041870117
 70
192
  0
VERTEX
  8
Meshes
 10
-2.0194747447967529
 20
0.4829550981521606
 30
-4.2282896041870117
 70
192
  0
VERTEX
  8
Meshes
 10
1.5482387542724609
 20
-2.4250283241271973
 30
2.5603575706481934
 70
192
  0
VERTEX
  8
Meshes
 10
-1.4557948112487793
 20
-2.4250283241271973
 30
2.5603575706481934
 70
192
  0
VERTEX
  8
Meshes
 10
1.0733876228332520
 20
-2.7147402763366699
 30
1.7384727001190186
 70
192
  0
VERTEX
  8
Meshes
 10
-0.9809436798095703
 20
-2.7147402763366699
 30
1.7384727001190186
 70
192
  0
VERTEX
  8
Meshes
 10
1.8201379776000977
 20
-4.6761178970336914
 30
2.5239515304565430
 70
192
  0
VERTEX
  8
Meshes
 10
-1.7276940345764160
 20
-4.6761178970336914
 30
2.5239515304565430
 70
192
  0
VERTEX
  8
Meshes
 10
1.6326762437820435
 20
-3.4057171344757080
 30
2.5541639328002930
 70
192
  0
VERTEX
  8
Meshes
 10
-1.5402323007583618
 20
-3.4057171344757080
 30
2.5541639328002930
 70
192
  0
VERTEX
  8
Meshes
 10
1.8612779378890991
 20
-5.6363224983215332
 30
2.6969575881958008
 70
192
  0
VERTEX
  8
Meshes
 10
-1.7688339948654175
 20
-5.6363224983215332
 30
2.6969575881958008
 70
192
  0
VERTEX
  8
Meshes
 10
0.9494475126266479
 20
-4.7899870872497559
 30
2.3388123512268066
 70
192
  0
VERTEX
  8
Meshes
 10
-0.8570035099983215
 20
-4.7899870872497559
 30
2.3388123512268066
 70
192
  0
VERTEX
  8
Meshes
 10
0.8836033344268799
 20
-3.4978964328765869
 30
2.1838855743408203
 70
192
  0
VERTEX
  8
Meshes
 10
-0.7911593317985535
 20
-3.4978964328765869
 30
2.1838855743408203
 70
192
  0
VERTEX
  8
Meshes
 10
1.0788133144378662
 20
-5.8744812011718750
 30
2.7687351703643799
 70
192
  0
VERTEX
  8
Meshes
 10
-0.9863693714141846
 20
-5.8744812011718750
 30
2.7687351703643799
 70
192
  0
VERTEX
  8
Meshes
 10
1.5427750349044800
 20
-1.8136849403381348
 30
2.5350060462951660
 70
192
  0
VERTEX
  8
Meshes
 10
-1.4503310918807983
 20
-1.8136849403381348
 30
2.5350060462951660
 70
192
  0
VERTEX
  8
Meshes
 10
1.5639891624450684
 20
-1.3722952604293823
 30
2.9742760658264160
 70
192
  0
VERTEX
  8
Meshes
 10
-1.4715451002120972
 20
-1.3722952604293823
 30
2.9742760658264160
 70
192
  0
VERTEX
  8
Meshes
 10
1.6524181365966797
 20
-1.0959222316741943
 30
3.1504867076873779
 70
192
  0
VERTEX
  8
Meshes
 10
-1.5599740743637085
 20
-1.0959222316741943
 30
3.1504867076873779
 70
192
  0
VERTEX
  8
Meshes
 10
1.3955330848693848
 20
-2.3501031398773193
 30
0.9549927115440369
 70
192
  0
VERTEX
  8
Meshes
 10
-1.3030890226364136
 20
-2.3501031398773193
 30
0.9549927115440369
 70
192
  0
VERTEX
  8
Meshes
 10
1.7798547744750977
 20
-1.8665138483047485
 30
-1.6273232698440552
 70
192
  0
VERTEX
  8
Meshes
 10
-1.6874108314514160
 20
-1.8665138483047485
 30
-1.6273232698440552
 70
192
  0
VERTEX
  8
Meshes
 10
2.0189588069915771
 20
-0.8447675108909607
 30
-3.4319658279418945
 70
192
  0
VERTEX
  8
Meshes
 10
-1.9265148639678955
 20
-0.8447675108909607
 30
-3.4319658279418945
 70
192
  0
VERTEX
  8
Meshes
 10
2.7132928371429443
 20
5.1013393402099609
 30
-2.6204056739807129
 70
192
  0
VERTEX
  8
Meshes
 10
-2.6208486557006836
 20
5.1013393402099609
 30
-2.6204056739807129
 70
192
  0
VERTEX
  8
Meshes
 10
2.7109701633453369
 20
5.6815371513366699
 30
-0.6001513004302979
 70
192
  0
VERTEX
  8
Meshes
 10
-2.6185262203216553
 20
5.6815371513366699
 30
-0.6001513004302979
 70
192
  0
VERTEX
  8
Meshes
 10
2.7148411273956299
 20
5.1238031387329102
 30
1.2783374786376953
 70
192
  0
VERTEX
  8
Meshes
 10
-2.6223971843719482
 20
5.1238031387329102
 30
1.2783374786376953
 70
192
  0
VERTEX
  8
Meshes
 10
2.7675178050994873
 20
3.5567102432250977
 30
2.6192340850830078
 70
192
  0
VERTEX
  8
Meshes
 10
-2.6750736236572266
 20
3.5567102432250977
 30
2.6192340850830078
 70
192
  0
VERTEX
  8
Meshes
 10
4.7637529373168945
 20
2.5915176868438721
 30
1.8004395961761475
 70
192
  0
VERTEX
  8
Meshes
 10
-4.6713089942932129
 20
2.5915176868438721
 30
1.8004395961761475
 70
192
  0
VERTEX
  8
Meshes
 10
4.0479893684387207
 20
3.0872848033905029
 30
1.8871995210647583
 70
192
  0
VERTEX
  8
Meshes
 10
-3.9555454254150391
 20
3.0872848033905029
 30
1.8871995210647583
 70
192
  0
VERTEX
  8
Meshes
 10
4.0758790969848633
 20
4.3057832717895508
 30
0.4835619628429413
 70
192
  0
VERTEX
  8
Meshes
 10
-3.9834351539611816
 20
4.3057832717895508
 30
0.4835619628429413
 70
192
  0
VERTEX
  8
Meshes
 10
4.9814271926879883
 20
3.3940415382385254
 30
0.5408837199211121
 70
192
  0
VERTEX
  8
Meshes
 10
-4.8889832496643066
 20
3.3940415382385254
 30
0.5408837199211121
 70
192
  0
VERTEX
  8
Meshes
 10
4.9969172477722168
 20
3.6883985996246338
 30
-0.9154304862022400
 70
192
  0
VERTEX
  8
Meshes
 10
-4.9044733047485352
 20
3.6883985996246338
 30
-0.9154304862022400
 70
192
  0
VERTEX
  8
Meshes
 10
4.0867242813110352
 20
4.6931066513061523
 30
-1.1129630804061890
 70
192
  0
VERTEX
  8
Meshes
 10
-3.9942803382873535
 20
4.6931066513061523
 30
-1.1129630804061890
 70
192
  0
VERTEX
  8
Meshes
 10
4.0712275505065918
 20
4.1206502914428711
 30
-2.6614565849304199
 70
192
  0
VERTEX
  8
Meshes
 10
-3.9787838459014893
 20
4.1206502914428711
 30
-2.6614565849304199
 70
192
  0
VERTEX
  8
Meshes
 10
4.8579125404357910
 20
3.3191609382629395
 30
-2.2152695655822754
 70
192
  0
VERTEX
  8
Meshes
 10
-4.7654681205749512
 20
3.3191609382629395
 30
-2.2152695655822754
 70
192
  0
VERTEX
  8
Meshes
 10
3.8736951351165771
 20
2.1453242301940918
 30
-3.5763077735900879
 70
192
  0
VERTEX
  8
Meshes
 10
-3.7812511920928955
 20
2.1453242301940918
 30
-3.5763077735900879
 70
192
  0
VERTEX
  8
Meshes
 10
3.1049375534057617
 20
0.1173281520605087
 30
-3.3513991832733154
 70
192
  0
VERTEX
  8
Meshes
 10
-3.0124936103820801
 20
0.1173281520605087
 30
-3.3513991832733154
 70
192
  0
VERTEX
  8
Meshes
 10
5.2800359725952148
 20
2.1995494365692139
 30
-1.3367674350738525
 70
192
  0
VERTEX
  8
Meshes
 10
-5.1875920295715332
 20
2.1995494365692139
 30
-1.3367674350738525
 70
192
  0
VERTEX
  8
Meshes
 10
2.6210689544677734
 20
-1.1592725515365601
 30
0.9738334417343140
 70
192
  0
VERTEX
  8
Meshes
 10
-2.5286250114440918
 20
-1.1592725515365601
 30
0.9738334417343140
 70
192
  0
VERTEX
  8
Meshes
 10
2.8310394287109375
 20
-1.1112411022186279
 30
-1.3523273468017578
 70
192
  0
VERTEX
  8
Meshes
 10
-2.7385954856872559
 20
-1.1112411022186279
 30
-1.3523273468017578
 70
192
  0
VERTEX
  8
Meshes
 10
5.7444419860839844
 20
2.5032093524932861
 30
-1.6761226654052734
 70
192
  0
VERTEX
  8
Meshes
 10
-5.6519980430603027
 20
2.5032093524932861
 30
-1.6761226654052734
 70
192
  0
VERTEX
  8
Meshes
 10
5.0805807113647461
 20
-0.7750523686408997
 30
-1.1857813596725464
 70
192
  0
VERTEX
  8
Meshes
 10
-4.9881367683410645
 20
-0.7750523686408997
 30
-1.1857813596725464
 70
192
  0
VERTEX
  8
Meshes
 10
6.6197838783264160
 20
-0.5008305907249451
 30
-2.1478769779205322
 70
192
  0
VERTEX
  8
Meshes
 10
-6.5273399353027344
 20
-0.5008305907249451
 30
-2.1478769779205322
 70
192
  0
VERTEX
  8
Meshes
 10
8.0094795227050781
 20
0.4434523880481720
 30
-2.7404747009277344
 70
192
  0
VERTEX
  8
Meshes
 10
-7.9170360565185547
 20
0.4434523880481720
 30
-2.7404747009277344
 70
192
  0
VERTEX
  8
Meshes
 10
8.4254608154296875
 20
1.9230049848556519
 30
-2.7714550495147705
 70
192
  0
VERTEX
  8
Meshes
 10
-8.3330163955688477
 20
1.9230049848556519
 30
-2.7714550495147705
 70
192
  0
VERTEX
  8
Meshes
 10
7.7786378860473633
 20
2.9617898464202881
 30
-2.7009656429290771
 70
192
  0
VERTEX
  8
Meshes
 10
-7.6861939430236816
 20
2.9617898464202881
 30
-2.7009656429290771
 70
192
  0
VERTEX
  8
Meshes
 10
6.5949907302856445
 20
2.9083454608917236
 30
-2.1525220870971680
 70
192
  0
VERTEX
  8
Meshes
 10
-6.5025467872619629
 20
2.9083454608917236
 30
-2.1525220870971680
 70
192
  0
VERTEX
  8
Meshes
 10
6.5647850036621094
 20
2.5899693965911865
 30
-1.9650603532791138
 70
192
  0
VERTEX
  8
Meshes
 10
-6.4723410606384277
 20
2.5899693965911865
 30
-1.9650603532791138
 70
192
  0
VERTEX
  8
Meshes
 10
7.5330805778503418
 20
2.6271495819091797
 30
-2.5057556629180908
 70
192
  0
VERTEX
  8
Meshes
 10
-7.4406361579895020
 20
2.6271495819091797
 30
-2.5057556629180908
 70
192
  0
VERTEX
  8
Meshes
 10
8.0125770568847656
 20
1.7719491720199585
 30
-2.6459665298461914
 70
192
  0
VERTEX
  8
Meshes
 10
-7.9201326370239258
 20
1.7719491720199585
 30
-2.6459665298461914
 70
192
  0
VERTEX
  8
Meshes
 10
7.6663169860839844
 20
0.5557733178138733
 30
-2.5824449062347412
 70
192
  0
VERTEX
  8
Meshes
 10
-7.5738730430603027
 20
0.5557733178138733
 30
-2.5824449062347412
 70
192
  0
VERTEX
  8
Meshes
 10
6.5857005119323730
 20
-0.2033704072237015
 30
-1.9759054183959961
 70
192
  0
VERTEX
  8
Meshes
 10
-6.4932565689086914
 20
-0.2033704072237015
 30
-1.9759054183959961
 70
192
  0
VERTEX
  8
Meshes
 10
5.3741698265075684
 20
-0.4163931310176849
 30
-1.1036664247512817
 70
192
  0
VERTEX
  8
Meshes
 10
-5.2817258834838867
 20
-0.4163931310176849
 30
-1.1036664247512817
 70
192
  0
VERTEX
  8
Meshes
 10
5.9078912734985352
 20
2.2553226947784424
 30
-1.5366859436035156
 70
192
  0
VERTEX
  8
Meshes
 10
-5.8154473304748535
 20
2.2553226947784424
 30
-1.5366859436035156
 70
192
  0
VERTEX
  8
Meshes
 10
6.0504245758056641
 20
1.9408240318298340
 30
-1.8945710659027100
 70
192
  0
VERTEX
  8
Meshes
 10
-5.9579806327819824
 20
1.9408240318298340
 30
-1.8945710659027100
 70
192
  0
VERTEX
  8
Meshes
 10
5.6747269630432129
 20
-0.1584420204162598
 30
-1.5258409976959229
 70
192
  0
VERTEX
  8
Meshes
 10
-5.5822830200195312
 20
-0.1584420204162598
 30
-1.5258409976959229
 70
192
  0
VERTEX
  8
Meshes
 10
6.6329517364501953
 20
0.0197231397032738
 30
-2.2950556278228760
 70
192
  0
VERTEX
  8
Meshes
 10
-6.5405077934265137
 20
0.0197231397032738
 30
-2.2950556278228760
 70
192
  0
VERTEX
  8
Meshes
 10
7.5346288681030273
 20
0.6231659054756165
 30
-2.7977964878082275
 70
192
  0
VERTEX
  8
Meshes
 10
-7.4421849250793457
 20
0.6231659054756165
 30
-2.7977964878082275
 70
192
  0
VERTEX
  8
Meshes
 10
7.8328633308410645
 20
1.5651262998580933
 30
-2.8582150936126709
 70
192
  0
VERTEX
  8
Meshes
 10
-7.7404189109802246
 20
1.5651262998580933
 30
-2.8582150936126709
 70
192
  0
VERTEX
  8
Meshes
 10
7.4393463134765625
 20
2.2204651832580566
 30
-2.7536423206329346
 70
192
  0
VERTEX
  8
Meshes
 10
-7.3469023704528809
 20
2.2204651832580566
 30
-2.7536423206329346
 70
192
  0
VERTEX
  8
Meshes
 10
6.6027393341064453
 20
2.1987750530242920
 30
-2.3097777366638184
 70
192
  0
VERTEX
  8
Meshes
 10
-6.5102953910827637
 20
2.1987750530242920
 30
-2.3097777366638184
 70
192
  0
VERTEX
  8
Meshes
 10
5.4485301971435547
 20
1.8184323310852051
 30
-1.4049975872039795
 70
192
  0
VERTEX
  8
Meshes
 10
-5.3560862541198730
 20
1.8184323310852051
 30
-1.4049975872039795
 70
192
  0
VERTEX
  8
Meshes
 10
5.3059968948364258
 20
1.0949202775955200
 30
-1.7497150897979736
 70
192
  0
VERTEX
  8
Meshes
 10
-5.2135529518127441
 20
1.0949202775955200
 30
-1.7497150897979736
 70
192
  0
VERTEX
  8
Meshes
 10
4.9481182098388672
 20
0.6069015860557556
 30
-1.7489409446716309
 70
192
  0
VERTEX
  8
Meshes
 10
-4.8556742668151855
 20
0.6069015860557556
 30
-1.7489409446716309
 70
192
  0
VERTEX
  8
Meshes
 10
5.1966900825500488
 20
0.4450896084308624
 30
-1.8200330734252930
 70
192
  0
VERTEX
  8
Meshes
 10
-5.1042461395263672
 20
0.4450896084308624
 30
-1.8200330734252930
 70
192
  0
VERTEX
  8
Meshes
 10
5.2726874351501465
 20
0.1366955786943436
 30
-1.7450635433197021
 70
192
  0
VERTEX
  8
Meshes
 10
-5.1802434921264648
 20
0.1366955786943436
 30
-1.7450635433197021
 70
192
  0
VERTEX
  8
Meshes
 10
5.2099466323852539
 20
-0.0933720096945763
 30
-1.6807677745819092
 70
192
  0
VERTEX
  8
Meshes
 10
-5.1175026893615723
 20
-0.0933720096945763
 30
-1.6807677745819092
 70
192
  0
VERTEX
  8
Meshes
 10
4.7368974685668945
 20
0.1968602836132050
 30
-0.5306963324546814
 70
192
  0
VERTEX
  8
Meshes
 10
-4.6444535255432129
 20
0.1968602836132050
 30
-0.5306963324546814
 70
192
  0
VERTEX
  8
Meshes
 10
4.6629686355590820
 20
-0.1807919889688492
 30
-1.1014454364776611
 70
192
  0
VERTEX
  8
Meshes
 10
-4.5705246925354004
 20
-0.1807919889688492
 30
-1.1014454364776611
 70
192
  0
VERTEX
  8
Meshes
 10
4.7313833236694336
 20
0.3005953431129456
 30
-1.2521586418151855
 70
192
  0
VERTEX
  8
Meshes
 10
-4.6389389038085938
 20
0.3005953431129456
 30
-1.2521586418151855
 70
192
  0
VERTEX
  8
Meshes
 10
5.1456508636474609
 20
1.2723112106323242
 30
-1.2949992418289185
 70
192
  0
VERTEX
  8
Meshes
 10
-5.0532069206237793
 20
1.2723112106323242
 30
-1.2949992418289185
 70
192
  0
VERTEX
  8
Meshes
 10
5.6654300689697266
 20
1.5542813539505005
 30
-1.7411926984786987
 70
192
  0
VERTEX
  8
Meshes
 10
-5.5729861259460449
 20
1.5542813539505005
 30
-1.7411926984786987
 70
192
  0
VERTEX
  8
Meshes
 10
5.7614870071411133
 20
1.4318895339965820
 30
-2.0649878978729248
 70
192
  0
VERTEX
  8
Meshes
 10
-5.6690430641174316
 20
1.4318895339965820
 30
-2.0649878978729248
 70
192
  0
VERTEX
  8
Meshes
 10
5.3578166961669922
 20
-0.0548084788024426
 30
-1.9343339204788208
 70
192
  0
VERTEX
  8
Meshes
 10
-5.2653727531433105
 20
-0.0548084788024426
 30
-1.9343339204788208
 70
192
  0
VERTEX
  8
Meshes
 10
5.4593753814697266
 20
0.1490889638662338
 30
-2.0340077877044678
 70
192
  0
VERTEX
  8
Meshes
 10
-5.3669314384460449
 20
0.1490889638662338
 30
-2.0340077877044678
 70
192
  0
VERTEX
  8
Meshes
 10
5.3176159858703613
 20
0.4876065850257874
 30
-2.0355560779571533
 70
192
  0
VERTEX
  8
Meshes
 10
-5.2251720428466797
 20
0.4876065850257874
 30
-2.0355560779571533
 70
192
  0
VERTEX
  8
Meshes
 10
5.0892744064331055
 20
0.6695601940155029
 30
-2.0018153190612793
 70
192
  0
VERTEX
  8
Meshes
 10
-4.9968304634094238
 20
0.6695601940155029
 30
-2.0018153190612793
 70
192
  0
VERTEX
  8
Meshes
 10
5.4113502502441406
 20
1.0275276899337769
 30
-2.0363302230834961
 70
192
  0
VERTEX
  8
Meshes
 10
-5.3189063072204590
 20
1.0275276899337769
 30
-2.0363302230834961
 70
192
  0
VERTEX
  8
Meshes
 10
6.7037010192871094
 20
2.0286121368408203
 30
-2.6025865077972412
 70
192
  0
VERTEX
  8
Meshes
 10
-6.6112570762634277
 20
2.0286121368408203
 30
-2.6025865077972412
 70
192
  0
VERTEX
  8
Meshes
 10
7.4380578994750977
 20
2.0472052097320557
 30
-2.9558200836181641
 70
192
  0
VERTEX
  8
Meshes
 10
-7.3456139564514160
 20
2.0472052097320557
 30
-2.9558200836181641
 70
192
  0
VERTEX
  8
Meshes
 10
7.8034248352050781
 20
1.4783662557601929
 30
-3.0286383628845215
 70
192
  0
VERTEX
  8
Meshes
 10
-7.7109808921813965
 20
1.4783662557601929
 30
-3.0286383628845215
 70
192
  0
VERTEX
  8
Meshes
 10
7.5082874298095703
 20
0.6696426868438721
 30
-2.9550459384918213
 70
192
  0
VERTEX
  8
Meshes
 10
-7.4158430099487305
 20
0.6696426868438721
 30
-2.9550459384918213
 70
192
  0
VERTEX
  8
Meshes
 10
6.6445708274841309
 20
0.1413407176733017
 30
-2.5592064857482910
 70
192
  0
VERTEX
  8
Meshes
 10
-6.5521268844604492
 20
0.1413407176733017
 30
-2.5592064857482910
 70
192
  0
VERTEX
  8
Meshes
 10
5.7537388801574707
 20
-0.0360502451658249
 30
-1.8806293010711670
 70
192
  0
VERTEX
  8
Meshes
 10
-5.6612944602966309
 20
-0.0360502451658249
 30
-1.8806293010711670
 70
192
  0
VERTEX
  8
Meshes
 10
6.1557779312133789
 20
1.7827941179275513
 30
-2.2284371852874756
 70
192
  0
VERTEX
  8
Meshes
 10
-6.0633339881896973
 20
1.7827941179275513
 30
-2.2284371852874756
 70
192
  0
VERTEX
  8
Meshes
 10
5.6971912384033203
 20
0.7184483408927917
 30
-2.1269612312316895
 70
192
  0
VERTEX
  8
Meshes
 10
-5.6047472953796387
 20
0.7184483408927917
 30
-2.1269612312316895
 70
192
  0
VERTEX
  8
Meshes
 10
5.9109878540039062
 20
0.3791565597057343
 30
-2.1354837417602539
 70
192
  0
VERTEX
  8
Meshes
 10
-5.8185439109802246
 20
0.3791565597057343
 30
-2.1354837417602539
 70
192
  0
VERTEX
  8
Meshes
 10
6.3920388221740723
 20
0.7316159009933472
 30
-2.3763961791992188
 70
192
  0
VERTEX
  8
Meshes
 10
-6.2995948791503906
 20
0.7316159009933472
 30
-2.3763961791992188
 70
192
  0
VERTEX
  8
Meshes
 10
6.1108431816101074
 20
1.0956945419311523
 30
-2.2532238960266113
 70
192
  0
VERTEX
  8
Meshes
 10
-6.0183992385864258
 20
1.0956945419311523
 30
-2.2532238960266113
 70
192
  0
VERTEX
  8
Meshes
 10
6.4842181205749512
 20
1.4675213098526001
 30
-2.3942089080810547
 70
192
  0
VERTEX
  8
Meshes
 10
-6.3917741775512695
 20
1.4675213098526001
 30
-2.3942089080810547
 70
192
  0
VERTEX
  8
Meshes
 10
6.8219618797302246
 20
1.1212553977966309
 30
-2.5266714096069336
 70
192
  0
VERTEX
  8
Meshes
 10
-6.7295179367065430
 20
1.1212553977966309
 30
-2.5266714096069336
 70
192
  0
VERTEX
  8
Meshes
 10
7.1756267547607422
 20
1.4118304252624512
 30
-2.6421780586242676
 70
192
  0
VERTEX
  8
Meshes
 10
-7.0831828117370605
 20
1.4118304252624512
 30
-2.6421780586242676
 70
192
  0
VERTEX
  8
Meshes
 10
6.9446139335632324
 20
1.7365776300430298
 30
-2.5816707611083984
 70
192
  0
VERTEX
  8
Meshes
 10
-6.8521695137023926
 20
1.7365776300430298
 30
-2.5816707611083984
 70
192
  0
VERTEX
  8
Meshes
 10
6.6004166603088379
 20
2.3777143955230713
 30
-2.9449751377105713
 70
192
  0
VERTEX
  8
Meshes
 10
-6.5079727172851562
 20
2.3777143955230713
 30
-2.9449751377105713
 70
192
  0
VERTEX
  8
Meshes
 10
7.9139437675476074
 20
2.5357444286346436
 30
-3.3124105930328369
 70
192
  0
VERTEX
  8
Meshes
 10
-7.8214998245239258
 20
2.5357444286346436
 30
-3.3124105930328369
 70
192
  0
VERTEX
  8
Meshes
 10
8.4751806259155273
 20
1.8180832862854004
 30
-3.1852276325225830
 70
192
  0
VERTEX
  8
Meshes
 10
-8.3827362060546875
 20
1.8180832862854004
 30
-3.1852276325225830
 70
192
  0
VERTEX
  8
Meshes
 10
8.1370372772216797
 20
0.7176741957664490
 30
-3.2760045528411865
 70
192
  0
VERTEX
  8
Meshes
 10
-8.0445928573608398
 20
0.7176741957664490
 30
-3.2760045528411865
 70
192
  0
VERTEX
  8
Meshes
 10
6.6453452110290527
 20
-0.0794302523136139
 30
-2.9325816631317139
 70
192
  0
VERTEX
  8
Meshes
 10
-6.5529007911682129
 20
-0.0794302523136139
 30
-2.9325816631317139
 70
192
  0
VERTEX
  8
Meshes
 10
5.1735343933105469
 20
-0.3172397315502167
 30
-2.1959021091461182
 70
192
  0
VERTEX
  8
Meshes
 10
-5.0810904502868652
 20
-0.3172397315502167
 30
-2.1959021091461182
 70
192
  0
VERTEX
  8
Meshes
 10
5.5314192771911621
 20
2.0159649848937988
 30
-2.4259698390960693
 70
192
  0
VERTEX
  8
Meshes
 10
-5.4389753341674805
 20
2.0159649848937988
 30
-2.4259698390960693
 70
192
  0
VERTEX
  8
Meshes
 10
0
 20
0
 30
0
 70
128
  71
89
  72
91
  73
176
  74
174
  0
VERTEX
  8
Meshes
 10
0
 20
0
 30
0
 70
128
  71
176
  72
91
  73
90
  74
175
  0
VERTEX
  8
Meshes
 10
0
 20
0
 30
0
 70
128
  71
87
  72
89
  73
174
  74
172
  0
VERTEX
  8
Meshes
 10
0
 20
0
 30
0
 70
128
  71
175
  72
90
  73
88
  74
173
  0
VERTEX
  8
Meshes
 10
0
 20
0
 30
0
 70
128
  71
85
  72
87
  73
172
  74
170
  0
VERTEX
  8
Meshes
 10
0
 20
0
 30
0
 70
128
  71
173
  72
88
  73
86
  74
171
  0
VERTEX
  8
Meshes
 10
0
 20
0
 30
0
 70
128
  71
83
  72
85
  73
170
  74
168
  0
VERTEX
  8
Meshes
 10
0
 20
0
 30
0
 70
128
  71
171
  72
86
  73
84
  74
169
  0
VERTEX
  8
Meshes
 10
0
 20
0
 30
0
 70
128
  71
81
  72
83
  73
168
  74
166
  0
VERTEX
  8
Meshes
 10
0
 20
0
 30
0
 70
128
  71
169
  72
84
  73
82
  74
167
  0
VERTEX
  8
Meshes
 10
0
 20
0
 30
0
 70
128
  71
79
  72
164
  73
146
  74
92
  0
VERTEX
  8
Meshes
 10
0
 20
0
 30
0
 70
128
  71
147
  72
165
  73
80
  74
93
  0
VERTEX
  8
Meshes
 10
0
 20
0
 30
0
 70
128
  71
92
  72
146
  73
148
  74
94
  0
VERTEX
  8
Meshes
 10
0
 20
0
 30
0
 70
128
  71
149
  72
147
  73
93
  74
95
  0
VERTEX
  8
Meshes
 10
0
 20
0
 30
0
 70
128
  71
94
  72
148
  73
150
  74
96
  0
VERTEX
  8
Meshes
 10
0
 20
0
 30
0
 70
128
  71
151
  72
149
  73
95
  74
97
  0
VERTEX
  8
Meshes
 10
0
 20
0
 30
0
 70
128
  71
96
  72
150
  73
152
  74
98
  0
VERTEX
  8
Meshes
 10
0
 20
0
 30
0
 70
128
  71
153
  72
151
  73
97
  74
99
  0
VERTEX
  8
Meshes
 10
0
 20
0
 30
0
 70
128
  71
98
  72
152
  73
154
  74
100
  0
VERTEX
  8
Meshes
 10
0
 20
0
 30
0
 70
128
  71
155
  72
153
  73
99
  74
101
  0
VERTEX
  8
Meshes
 10
0
 20
0
 30
0
 70
128
  71
100
  72
154
  73
156
  74
102
  0
VERTEX
  8
Meshes
 10
0
 20
0
 30
0
 70
128
  71
157
  72
155
  73
101
  74
103
  0
VERTEX
  8
Meshes
 10
0
 20
0
 30
0
 70
128
  71
102
  72
156
  73
158
  74
104
  0
VERTEX
  8
Meshes
 10
0
 20
0
 30
0
 70
128
  71
159
  72
157
  73
103
  74
105
  0
VERTEX
  8
Meshes
 10
0
 20
0
 30
0
 70
128
  71
104
  72
158
  73
160
  74
106
  0
VERTEX
  8
Meshes
 10
0
 20
0
 30
0
 70
128
  71
161
  72
159
  73
105
  74
107
  0
VERTEX
  8
Meshes
 10
0
 20
0
 30
0
 70
128
  71
106
  72
160
  73
162
  74
108
  0
VERTEX
  8
Meshes
 10
0
 20
0
 30
0
 70
128
  71
163
  72
161
  73
107
  74
109
  0
VERTEX
  8
Meshes
 10
0
 20
0
 30
0
 70
128
  71
108
  72
162
  73
68
  74
67
  0
VERTEX
  8
Meshes
 10
0
 20
0
 30
0
 70
128
  71
68
  72
163
  73
109
  74
67
  0
VERTEX
  8
Meshes
 10
0
 20
0
 30
0
 70
128
  71
110
  72
162
  73
160
  74
128
  0
VERTEX
  8
Meshes
 10
0
 20
0
 30
0
 70
128
  71
161
  72
163
  73
111
  74
129
  0
VERTEX
  8
Meshes
 10
0
 20
0
 30
0
 70
128
  71
128
  72
160
  73
158
  74
179
  0
VERTEX
  8
Meshes
 10
0
 20
0
 30
0
 70
128
  71
159
  72
161
  73
129
  74
180
  0
VERTEX
  8
Meshes
 10
0
 20
0
 30
0
 70
128
  71
126
  72
179
  73
158
  74
156
  0
VERTEX
  8
Meshes
 10
0
 20
0
 30
0
 70
128
  71
159
  72
180
  73
127
  74
157
  0
VERTEX
  8
Meshes
 10
0
 20
0
 30
0
 70
128
  71
124
  72
126
  73
156
  74
154
  0
VERTEX
  8
Meshes
 10
0
 20
0
 30
0
 70
128
  71
157
  72
127
  73
125
  74
155
  0
VERTEX
  8
Meshes
 10
0
 20
0
 30
0
 70
128
  71
122
  72
124
  73
154
  74
152
  0
VERTEX
  8
Meshes
 10
0
 20
0
 30
0
 70
128
  71
155
  72
125
  73
123
  74
153
  0
VERTEX
  8
Meshes
 10
0
 20
0
 30
0
 70
128
  71
120
  72
122
  73
152
  74
150
  0
VERTEX
  8
Meshes
 10
0
 20
0
 30
0
 70
128
  71
153
  72
123
  73
121
  74
151
  0
VERTEX
  8
Meshes
 10
0
 20
0
 30
0
 70
128
  71
118
  72
120
  73
150
  74
148
  0
VERTEX
  8
Meshes
 10
0
 20
0
 30
0
 70
128
  71
151
  72
121
  73
119
  74
149
  0
VERTEX
  8
Meshes
 10
0
 20
0
 30
0
 70
128
  71
116
  72
118
  73
148
  74
146
  0
VERTEX
  8
Meshes
 10
0
 20
0
 30
0
 70
128
  71
149
  72
119
  73
117
  74
147
  0
VERTEX
  8
Meshes
 10
0
 20
0
 30
0
 70
128
  71
114
  72
116
  73
146
  74
164
  0
VERTEX
  8
Meshes
 10
0
 20
0
 30
0
 70
128
  71
147
  72
117
  73
115
  74
165
  0
VERTEX
  8
Meshes
 10
0
 20
0
 30
0
 70
128
  71
114
  72
164
  73
177
  74
181
  0
VERTEX
  8
Meshes
 10
0
 20
0
 30
0
 70
128
  71
177
  72
165
  73
115
  74
182
  0
VERTEX
  8
Meshes
 10
0
 20
0
 30
0
 70
128
  71
110
  72
112
  73
68
  74
162
  0
VERTEX
  8
Meshes
 10
0
 20
0
 30
0
 70
128
  71
68
  72
113
  73
111
  74
163
  0
VERTEX
  8
Meshes
 10
0
 20
0
 30
0
 70
128
  71
112
  72
183
  73
178
  74
68
  0
VERTEX
  8
Meshes
 10
0
 20
0
 30
0
 70
128
  71
178
  72
184
  73
113
  74
68
  0
VERTEX
  8
Meshes
 10
0
 20
0
 30
0
 70
128
  71
177
  72
178
  73
183
  74
181
  0
VERTEX
  8
Meshes
 10
0
 20
0
 30
0
 70
128
  71
184
  72
178
  73
177
  74
182
  0
VERTEX
  8
Meshes
 10
0
 20
0
 30
0
 70
128
  71
135
  72
174
  73
176
  74
137
  0
VERTEX
  8
Meshes
 10
0
 20
0
 30
0
 70
128
  71
176
  72
175
  73
136
  74
137
  0
VERTEX
  8
Meshes
 10
0
 20
0
 30
0
 70
128
  71
133
  72
172
  73
174
  74
135
  0
VERTEX
  8
Meshes
 10
0
 20
0
 30
0
 70
128
  71
175
  72
173
  73
134
  74
136
  0
VERTEX
  8
Meshes
 10
0
 20
0
 30
0
 70
128
  71
131
  72
170
  73
172
  74
133
  0
VERTEX
  8
Meshes
 10
0
 20
0
 30
0
 70
128
  71
173
  72
171
  73
132
  74
134
  0
VERTEX
  8
Meshes
 10
0
 20
0
 30
0
 70
128
  71
166
  72
168
  73
185
  74
187
  0
VERTEX
  8
Meshes
 10
0
 20
0
 30
0
 70
128
  71
186
  72
169
  73
167
  74
188
  0
VERTEX
  8
Meshes
 10
0
 20
0
 30
0
 70
128
  71
131
  72
185
  73
168
  74
170
  0
VERTEX
  8
Meshes
 10
0
 20
0
 30
0
 70
128
  71
169
  72
186
  73
132
  74
171
  0
VERTEX
  8
Meshes
 10
0
 20
0
 30
0
 70
128
  71
144
  72
187
  73
189
  74
190
  0
VERTEX
  8
Meshes
 10
0
 20
0
 30
0
 70
128
  71
189
  72
188
  73
145
  74
190
  0
VERTEX
  8
Meshes
 10
0
 20
0
 30
0
 70
128
  71
185
  72
69
  73
189
  74
187
  0
VERTEX
  8
Meshes
 10
0
 20
0
 30
0
 70
128
  71
189
  72
69
  73
186
  74
188
  0
VERTEX
  8
Meshes
 10
0
 20
0
 30
0
 70
128
  71
130
  72
69
  73
185
  74
131
  0
VERTEX
  8
Meshes
 10
0
 20
0
 30
0
 70
128
  71
186
  72
69
  73
130
  74
132
  0
VERTEX
  8
Meshes
 10
0
 20
0
 30
0
 70
128
  71
142
  72
144
  73
191
  74
193
  0
VERTEX
  8
Meshes
 10
0
 20
0
 30
0
 70
128
  71
192
  72
145
  73
143
  74
194
  0
VERTEX
  8
Meshes
 10
0
 20
0
 30
0
 70
128
  71
140
  72
142
  73
193
  74
195
  0
VERTEX
  8
Meshes
 10
0
 20
0
 30
0
 70
128
  71
194
  72
143
  73
141
  74
196
  0
VERTEX
  8
Meshes
 10
0
 20
0
 30
0
 70
128
  71
139
  72
140
  73
195
  74
197
  0
VERTEX
  8
Meshes
 10
0
 20
0
 30
0
 70
128
  71
196
  72
141
  73
139
  74
198
  0
VERTEX
  8
Meshes
 10
0
 20
0
 30
0
 70
128
  71
138
  72
139
  73
197
  74
71
  0
VERTEX
  8
Meshes
 10
0
 20
0
 30
0
 70
128
  71
198
  72
139
  73
138
  74
71
  0
VERTEX
  8
Meshes
 10
0
 20
0
 30
0
 70
128
  71
190
  72
70
  73
191
  74
144
  0
VERTEX
  8
Meshes
 10
0
 20
0
 30
0
 70
128
  71
192
  72
70
  73
190
  74
145
  0
VERTEX
  8
Meshes
 10
0
 20
0
 30
0
 70
128
  71
70
  72
208
  73
206
  74
191
  0
VERTEX
  8
Meshes
 10
0
 20
0
 30
0
 70
128
  71
207
  72
208
  73
70
  74
192
  0
VERTEX
  8
Meshes
 10
0
 20
0
 30
0
 70
128
  71
71
  72
197
  73
200
  74
199
  0
VERTEX
  8
Meshes
 10
0
 20
0
 30
0
 70
128
  71
201
  72
198
  73
71
  74
199
  0
VERTEX
  8
Meshes
 10
0
 20
0
 30
0
 70
128
  71
197
  72
195
  73
202
  74
200
  0
VERTEX
  8
Meshes
 10
0
 20
0
 30
0
 70
128
  71
203
  72
196
  73
198
  74
201
  0
VERTEX
  8
Meshes
 10
0
 20
0
 30
0
 70
128
  71
195
  72
193
  73
204
  74
202
  0
VERTEX
  8
Meshes
 10
0
 20
0
 30
0
 70
128
  71
205
  72
194
  73
196
  74
203
  0
VERTEX
  8
Meshes
 10
0
 20
0
 30
0
 70
128
  71
193
  72
191
  73
206
  74
204
  0
VERTEX
  8
Meshes
 10
0
 20
0
 30
0
 70
128
  71
207
  72
192
  73
194
  74
205
  0
VERTEX
  8
Meshes
 10
0
 20
0
 30
0
 70
128
  71
199
  72
200
  73
202
  74
204
  0
VERTEX
  8
Meshes
 10
0
 20
0
 30
0
 70
128
  71
203
  72
201
  73
199
  74
205
  0
VERTEX
  8
Meshes
 10
0
 20
0
 30
0
 70
128
  71
199
  72
204
  73
206
  74
208
  0
VERTEX
  8
Meshes
 10
0
 20
0
 30
0
 70
128
  71
207
  72
205
  73
199
  74
208
  0
VERTEX
  8
Meshes
 10
0
 20
0
 30
0
 70
128
  71
139
  72
177
  73
164
  74
140
  0
VERTEX
  8
Meshes
 10
0
 20
0
 30
0
 70
128
  71
165
  72
177
  73
139
  74
141
  0
VERTEX
  8
Meshes
 10
0
 20
0
 30
0
 70
128
  71
140
  72
164
  73
211
  74
142
  0
VERTEX
  8
Meshes
 10
0
 20
0
 30
0
 70
128
  71
212
  72
165
  73
141
  74
143
  0
VERTEX
  8
Meshes
 10
0
 20
0
 30
0
 70
128
  71
142
  72
211
  73
213
  74
144
  0
VERTEX
  8
Meshes
 10
0
 20
0
 30
0
 70
128
  71
214
  72
212
  73
143
  74
145
  0
VERTEX
  8
Meshes
 10
0
 20
0
 30
0
 70
128
  71
144
  72
213
  73
166
  74
187
  0
VERTEX
  8
Meshes
 10
0
 20
0
 30
0
 70
128
  71
167
  72
214
  73
145
  74
188
  0
VERTEX
  8
Meshes
 10
0
 20
0
 30
0
 70
128
  71
81
  72
166
  73
213
  74
209
  0
VERTEX
  8
Meshes
 10
0
 20
0
 30
0
 70
128
  71
214
  72
167
  73
82
  74
210
  0
VERTEX
  8
Meshes
 10
0
 20
0
 30
0
 70
128
  71
209
  72
213
  73
211
  74
215
  0
VERTEX
  8
Meshes
 10
0
 20
0
 30
0
 70
128
  71
212
  72
214
  73
210
  74
216
  0
VERTEX
  8
Meshes
 10
0
 20
0
 30
0
 70
128
  71
79
  72
215
  73
211
  74
164
  0
VERTEX
  8
Meshes
 10
0
 20
0
 30
0
 70
128
  71
212
  72
216
  73
80
  74
165
  0
VERTEX
  8
Meshes
 10
0
 20
0
 30
0
 70
128
  71
131
  72
222
  73
72
  74
130
  0
VERTEX
  8
Meshes
 10
0
 20
0
 30
0
 70
128
  71
72
  72
223
  73
132
  74
130
  0
VERTEX
  8
Meshes
 10
0
 20
0
 30
0
 70
128
  71
133
  72
220
  73
222
  74
131
  0
VERTEX
  8
Meshes
 10
0
 20
0
 30
0
 70
128
  71
223
  72
221
  73
134
  74
132
  0
VERTEX
  8
Meshes
 10
0
 20
0
 30
0
 70
128
  71
135
  72
218
  73
220
  74
133
  0
VERTEX
  8
Meshes
 10
0
 20
0
 30
0
 70
128
  71
221
  72
219
  73
136
  74
134
  0
VERTEX
  8
Meshes
 10
0
 20
0
 30
0
 70
128
  71
137
  72
217
  73
218
  74
135
  0
VERTEX
  8
Meshes
 10
0
 20
0
 30
0
 70
128
  71
219
  72
217
  73
137
  74
136
  0
VERTEX
  8
Meshes
 10
0
 20
0
 30
0
 70
128
  71
217
  72
231
  73
229
  74
218
  0
VERTEX
  8
Meshes
 10
0
 20
0
 30
0
 70
128
  71
230
  72
231
  73
217
  74
219
  0
VERTEX
  8
Meshes
 10
0
 20
0
 30
0
 70
128
  71
218
  72
229
  73
227
  74
220
  0
VERTEX
  8
Meshes
 10
0
 20
0
 30
0
 70
128
  71
228
  72
230
  73
219
  74
221
  0
VERTEX
  8
Meshes
 10
0
 20
0
 30
0
 70
128
  71
220
  72
227
  73
225
  74
222
  0
VERTEX
  8
Meshes
 10
0
 20
0
 30
0
 70
128
  71
226
  72
228
  73
221
  74
223
  0
VERTEX
  8
Meshes
 10
0
 20
0
 30
0
 70
128
  71
222
  72
225
  73
224
  74
72
  0
VERTEX
  8
Meshes
 10
0
 20
0
 30
0
 70
128
  71
224
  72
226
  73
223
  74
72
  0
VERTEX
  8
Meshes
 10
0
 20
0
 30
0
 70
128
  71
224
  72
225
  73
229
  74
231
  0
VERTEX
  8
Meshes
 10
0
 20
0
 30
0
 70
128
  71
230
  72
226
  73
224
  74
231
  0
VERTEX
  8
Meshes
 10
0
 20
0
 30
0
 70
128
  71
225
  74
229
  72
227
  73
229
  0
VERTEX
  8
Meshes
 10
0
 20
0
 30
0
 70
128
  71
228
  74
230
  72
226
  73
230
  0
VERTEX
  8
Meshes
 10
0
 20
0
 30
0
 70
128
  71
183
  72
232
  73
234
  74
181
  0
VERTEX
  8
Meshes
 10
0
 20
0
 30
0
 70
128
  71
235
  72
233
  73
184
  74
182
  0
VERTEX
  8
Meshes
 10
0
 20
0
 30
0
 70
128
  71
112
  72
254
  73
232
  74
183
  0
VERTEX
  8
Meshes
 10
0
 20
0
 30
0
 70
128
  71
233
  72
255
  73
113
  74
184
  0
VERTEX
  8
Meshes
 10
0
 20
0
 30
0
 70
128
  71
110
  72
256
  73
254
  74
112
  0
VERTEX
  8
Meshes
 10
0
 20
0
 30
0
 70
128
  71
255
  72
257
  73
111
  74
113
  0
VERTEX
  8
Meshes
 10
0
 20
0
 30
0
 70
128
  71
181
  72
234
  73
252
  74
114
  0
VERTEX
  8
Meshes
 10
0
 20
0
 30
0
 70
128
  71
253
  72
235
  73
182
  74
115
  0
VERTEX
  8
Meshes
 10
0
 20
0
 30
0
 70
128
  71
114
  72
252
  73
250
  74
116
  0
VERTEX
  8
Meshes
 10
0
 20
0
 30
0
 70
128
  71
251
  72
253
  73
115
  74
117
  0
VERTEX
  8
Meshes
 10
0
 20
0
 30
0
 70
128
  71
116
  72
250
  73
248
  74
118
  0
VERTEX
  8
Meshes
 10
0
 20
0
 30
0
 70
128
  71
249
  72
251
  73
117
  74
119
  0
VERTEX
  8
Meshes
 10
0
 20
0
 30
0
 70
128
  71
118
  72
248
  73
246
  74
120
  0
VERTEX
  8
Meshes
 10
0
 20
0
 30
0
 70
128
  71
247
  72
249
  73
119
  74
121
  0
VERTEX
  8
Meshes
 10
0
 20
0
 30
0
 70
128
  71
120
  72
246
  73
244
  74
122
  0
VERTEX
  8
Meshes
 10
0
 20
0
 30
0
 70
128
  71
245
  72
247
  73
121
  74
123
  0
VERTEX
  8
Meshes
 10
0
 20
0
 30
0
 70
128
  71
122
  72
244
  73
242
  74
124
  0
VERTEX
  8
Meshes
 10
0
 20
0
 30
0
 70
128
  71
243
  72
245
  73
123
  74
125
  0
VERTEX
  8
Meshes
 10
0
 20
0
 30
0
 70
128
  71
124
  72
242
  73
240
  74
126
  0
VERTEX
  8
Meshes
 10
0
 20
0
 30
0
 70
128
  71
241
  72
243
  73
125
  74
127
  0
VERTEX
  8
Meshes
 10
0
 20
0
 30
0
 70
128
  71
126
  72
240
  73
236
  74
179
  0
VERTEX
  8
Meshes
 10
0
 20
0
 30
0
 70
128
  71
237
  72
241
  73
127
  74
180
  0
VERTEX
  8
Meshes
 10
0
 20
0
 30
0
 70
128
  71
179
  72
236
  73
238
  74
128
  0
VERTEX
  8
Meshes
 10
0
 20
0
 30
0
 70
128
  71
239
  72
237
  73
180
  74
129
  0
VERTEX
  8
Meshes
 10
0
 20
0
 30
0
 70
128
  71
128
  72
238
  73
256
  74
110
  0
VERTEX
  8
Meshes
 10
0
 20
0
 30
0
 70
128
  71
257
  72
239
  73
129
  74
111
  0
VERTEX
  8
Meshes
 10
0
 20
0
 30
0
 70
128
  71
238
  72
276
  73
258
  74
256
  0
VERTEX
  8
Meshes
 10
0
 20
0
 30
0
 70
128
  71
259
  72
277
  73
239
  74
257
  0
VERTEX
  8
Meshes
 10
0
 20
0
 30
0
 70
128
  71
236
  72
278
  73
276
  74
238
  0
VERTEX
  8
Meshes
 10
0
 20
0
 30
0
 70
128
  71
277
  72
279
  73
237
  74
239
  0
VERTEX
  8
Meshes
 10
0
 20
0
 30
0
 70
128
  71
240
  72
274
  73
278
  74
236
  0
VERTEX
  8
Meshes
 10
0
 20
0
 30
0
 70
128
  71
279
  72
275
  73
241
  74
237
  0
VERTEX
  8
Meshes
 10
0
 20
0
 30
0
 70
128
  71
242
  72
272
  73
274
  74
240
  0
VERTEX
  8
Meshes
 10
0
 20
0
 30
0
 70
128
  71
275
  72
273
  73
243
  74
241
  0
VERTEX
  8
Meshes
 10
0
 20
0
 30
0
 70
128
  71
244
  72
270
  73
272
  74
242
  0
VERTEX
  8
Meshes
 10
0
 20
0
 30
0
 70
128
  71
273
  72
271
  73
245
  74
243
  0
VERTEX
  8
Meshes
 10
0
 20
0
 30
0
 70
128
  71
246
  72
268
  73
270
  74
244
  0
VERTEX
  8
Meshes
 10
0
 20
0
 30
0
 70
128
  71
271
  72
269
  73
247
  74
245
  0
VERTEX
  8
Meshes
 10
0
 20
0
 30
0
 70
128
  71
248
  72
266
  73
268
  74
246
  0
VERTEX
  8
Meshes
 10
0
 20
0
 30
0
 70
128
  71
269
  72
267
  73
249
  74
247
  0
VERTEX
  8
Meshes
 10
0
 20
0
 30
0
 70
128
  71
250
  72
264
  73
266
  74
248
  0
VERTEX
  8
Meshes
 10
0
 20
0
 30
0
 70
128
  71
267
  72
265
  73
251
  74
249
  0
VERTEX
  8
Meshes
 10
0
 20
0
 30
0
 70
128
  71
252
  72
262
  73
264
  74
250
  0
VERTEX
  8
Meshes
 10
0
 20
0
 30
0
 70
128
  71
265
  72
263
  73
253
  74
251
  0
VERTEX
  8
Meshes
 10
0
 20
0
 30
0
 70
128
  71
234
  72
280
  73
262
  74
252
  0
VERTEX
  8
Meshes
 10
0
 20
0
 30
0
 70
128
  71
263
  72
281
  73
235
  74
253
  0
VERTEX
  8
Meshes
 10
0
 20
0
 30
0
 70
128
  71
256
  72
258
  73
260
  74
254
  0
VERTEX
  8
Meshes
 10
0
 20
0
 30
0
 70
128
  71
261
  72
259
  73
257
  74
255
  0
VERTEX
  8
Meshes
 10
0
 20
0
 30
0
 70
128
  71
254
  72
260
  73
282
  74
232
  0
VERTEX
  8
Meshes
 10
0
 20
0
 30
0
 70
128
  71
283
  72
261
  73
255
  74
233
  0
VERTEX
  8
Meshes
 10
0
 20
0
 30
0
 70
128
  71
232
  72
282
  73
280
  74
234
  0
VERTEX
  8
Meshes
 10
0
 20
0
 30
0
 70
128
  71
281
  72
283
  73
233
  74
235
  0
VERTEX
  8
Meshes
 10
0
 20
0
 30
0
 70
128
  71
67
  72
73
  73
284
  74
108
  0
VERTEX
  8
Meshes
 10
0
 20
0
 30
0
 70
128
  71
285
  72
73
  73
67
  74
109
  0
VERTEX
  8
Meshes
 10
0
 20
0
 30
0
 70
128
  71
108
  72
284
  73
286
  74
106
  0
VERTEX
  8
Meshes
 10
0
 20
0
 30
0
 70
128
  71
287
  72
285
  73
109
  74
107
  0
VERTEX
  8
Meshes
 10
0
 20
0
 30
0
 70
128
  71
106
  72
286
  73
288
  74
104
  0
VERTEX
  8
Meshes
 10
0
 20
0
 30
0
 70
128
  71
289
  72
287
  73
107
  74
105
  0
VERTEX
  8
Meshes
 10
0
 20
0
 30
0
 70
128
  71
104
  72
288
  73
290
  74
102
  0
VERTEX
  8
Meshes
 10
0
 20
0
 30
0
 70
128
  71
291
  72
289
  73
105
  74
103
  0
VERTEX
  8
Meshes
 10
0
 20
0
 30
0
 70
128
  71
102
  72
290
  73
292
  74
100
  0
VERTEX
  8
Meshes
 10
0
 20
0
 30
0
 70
128
  71
293
  72
291
  73
103
  74
101
  0
VERTEX
  8
Meshes
 10
0
 20
0
 30
0
 70
128
  71
100
  72
292
  73
294
  74
98
  0
VERTEX
  8
Meshes
 10
0
 20
0
 30
0
 70
128
  71
295
  72
293
  73
101
  74
99
  0
VERTEX
  8
Meshes
 10
0
 20
0
 30
0
 70
128
  71
98
  72
294
  73
296
  74
96
  0
VERTEX
  8
Meshes
 10
0
 20
0
 30
0
 70
128
  71
297
  72
295
  73
99
  74
97
  0
VERTEX
  8
Meshes
 10
0
 20
0
 30
0
 70
128
  71
96
  72
296
  73
298
  74
94
  0
VERTEX
  8
Meshes
 10
0
 20
0
 30
0
 70
128
  71
299
  72
297
  73
97
  74
95
  0
VERTEX
  8
Meshes
 10
0
 20
0
 30
0
 70
128
  71
94
  72
298
  73
300
  74
92
  0
VERTEX
  8
Meshes
 10
0
 20
0
 30
0
 70
128
  71
301
  72
299
  73
95
  74
93
  0
VERTEX
  8
Meshes
 10
0
 20
0
 30
0
 70
128
  71
308
  72
338
  73
328
  74
309
  0
VERTEX
  8
Meshes
 10
0
 20
0
 30
0
 70
128
  71
329
  72
339
  73
308
  74
309
  0
VERTEX
  8
Meshes
 10
0
 20
0
 30
0
 70
128
  71
307
  72
336
  73
338
  74
308
  0
VERTEX
  8
Meshes
 10
0
 20
0
 30
0
 70
128
  71
339
  72
337
  73
307
  74
308
  0
VERTEX
  8
Meshes
 10
0
 20
0
 30
0
 70
128
  71
306
  72
340
  73
336
  74
307
  0
VERTEX
  8
Meshes
 10
0
 20
0
 30
0
 70
128
  71
337
  72
341
  73
306
  74
307
  0
VERTEX
  8
Meshes
 10
0
 20
0
 30
0
 70
128
  71
89
  72
340
  73
306
  74
91
  0
VERTEX
  8
Meshes
 10
0
 20
0
 30
0
 70
128
  71
306
  72
341
  73
90
  74
91
  0
VERTEX
  8
Meshes
 10
0
 20
0
 30
0
 70
128
  71
87
  72
334
  73
340
  74
89
  0
VERTEX
  8
Meshes
 10
0
 20
0
 30
0
 70
128
  71
341
  72
335
  73
88
  74
90
  0
VERTEX
  8
Meshes
 10
0
 20
0
 30
0
 70
128
  71
85
  72
330
  73
334
  74
87
  0
VERTEX
  8
Meshes
 10
0
 20
0
 30
0
 70
128
  71
335
  72
331
  73
86
  74
88
  0
VERTEX
  8
Meshes
 10
0
 20
0
 30
0
 70
128
  71
83
  72
332
  73
330
  74
85
  0
VERTEX
  8
Meshes
 10
0
 20
0
 30
0
 70
128
  71
331
  72
333
  73
84
  74
86
  0
VERTEX
  8
Meshes
 10
0
 20
0
 30
0
 70
128
  71
330
  72
332
  73
338
  74
336
  0
VERTEX
  8
Meshes
 10
0
 20
0
 30
0
 70
128
  71
339
  72
333
  73
331
  74
337
  0
VERTEX
  8
Meshes
 10
0
 20
0
 30
0
 70
128
  71
330
  72
336
  73
340
  74
334
  0
VERTEX
  8
Meshes
 10
0
 20
0
 30
0
 70
128
  71
341
  72
337
  73
331
  74
335
  0
VERTEX
  8
Meshes
 10
0
 20
0
 30
0
 70
128
  71
326
  72
328
  73
338
  74
332
  0
VERTEX
  8
Meshes
 10
0
 20
0
 30
0
 70
128
  71
339
  72
329
  73
327
  74
333
  0
VERTEX
  8
Meshes
 10
0
 20
0
 30
0
 70
128
  71
81
  72
326
  73
332
  74
83
  0
VERTEX
  8
Meshes
 10
0
 20
0
 30
0
 70
128
  71
333
  72
327
  73
82
  74
84
  0
VERTEX
  8
Meshes
 10
0
 20
0
 30
0
 70
128
  71
209
  72
215
  73
344
  74
342
  0
VERTEX
  8
Meshes
 10
0
 20
0
 30
0
 70
128
  71
345
  72
216
  73
210
  74
343
  0
VERTEX
  8
Meshes
 10
0
 20
0
 30
0
 70
128
  71
81
  72
209
  73
342
  74
326
  0
VERTEX
  8
Meshes
 10
0
 20
0
 30
0
 70
128
  71
343
  72
210
  73
82
  74
327
  0
VERTEX
  8
Meshes
 10
0
 20
0
 30
0
 70
128
  71
79
  72
346
  73
344
  74
215
  0
VERTEX
  8
Meshes
 10
0
 20
0
 30
0
 70
128
  71
345
  72
347
  73
80
  74
216
  0
VERTEX
  8
Meshes
 10
0
 20
0
 30
0
 70
128
  71
79
  72
92
  73
300
  74
346
  0
VERTEX
  8
Meshes
 10
0
 20
0
 30
0
 70
128
  71
301
  72
93
  73
80
  74
347
  0
VERTEX
  8
Meshes
 10
0
 20
0
 30
0
 70
128
  71
77
  72
304
  73
352
  74
324
  0
VERTEX
  8
Meshes
 10
0
 20
0
 30
0
 70
128
  71
353
  72
304
  73
77
  74
325
  0
VERTEX
  8
Meshes
 10
0
 20
0
 30
0
 70
128
  71
304
  72
78
  73
350
  74
352
  0
VERTEX
  8
Meshes
 10
0
 20
0
 30
0
 70
128
  71
351
  72
78
  73
304
  74
353
  0
VERTEX
  8
Meshes
 10
0
 20
0
 30
0
 70
128
  71
78
  72
305
  73
348
  74
350
  0
VERTEX
  8
Meshes
 10
0
 20
0
 30
0
 70
128
  71
349
  72
305
  73
78
  74
351
  0
VERTEX
  8
Meshes
 10
0
 20
0
 30
0
 70
128
  71
305
  72
309
  73
328
  74
348
  0
VERTEX
  8
Meshes
 10
0
 20
0
 30
0
 70
128
  71
329
  72
309
  73
305
  74
349
  0
VERTEX
  8
Meshes
 10
0
 20
0
 30
0
 70
128
  71
326
  72
342
  73
348
  74
328
  0
VERTEX
  8
Meshes
 10
0
 20
0
 30
0
 70
128
  71
349
  72
343
  73
327
  74
329
  0
VERTEX
  8
Meshes
 10
0
 20
0
 30
0
 70
128
  71
296
  72
310
  73
318
  74
298
  0
VERTEX
  8
Meshes
 10
0
 20
0
 30
0
 70
128
  71
319
  72
311
  73
297
  74
299
  0
VERTEX
  8
Meshes
 10
0
 20
0
 30
0
 70
128
  71
76
  72
77
  73
324
  74
316
  0
VERTEX
  8
Meshes
 10
0
 20
0
 30
0
 70
128
  71
325
  72
77
  73
76
  74
317
  0
VERTEX
  8
Meshes
 10
0
 20
0
 30
0
 70
128
  71
302
  72
303
  73
356
  74
358
  0
VERTEX
  8
Meshes
 10
0
 20
0
 30
0
 70
128
  71
357
  72
303
  73
302
  74
359
  0
VERTEX
  8
Meshes
 10
0
 20
0
 30
0
 70
128
  71
303
  72
75
  73
354
  74
356
  0
VERTEX
  8
Meshes
 10
0
 20
0
 30
0
 70
128
  71
355
  72
75
  73
303
  74
357
  0
VERTEX
  8
Meshes
 10
0
 20
0
 30
0
 70
128
  71
75
  72
76
  73
316
  74
354
  0
VERTEX
  8
Meshes
 10
0
 20
0
 30
0
 70
128
  71
317
  72
76
  73
75
  74
355
  0
VERTEX
  8
Meshes
 10
0
 20
0
 30
0
 70
128
  71
292
  72
364
  73
362
  74
294
  0
VERTEX
  8
Meshes
 10
0
 20
0
 30
0
 70
128
  71
363
  72
365
  73
293
  74
295
  0
VERTEX
  8
Meshes
 10
0
 20
0
 30
0
 70
128
  71
364
  72
366
  73
368
  74
362
  0
VERTEX
  8
Meshes
 10
0
 20
0
 30
0
 70
128
  71
369
  72
367
  73
365
  74
363
  0
VERTEX
  8
Meshes
 10
0
 20
0
 30
0
 70
128
  71
366
  72
372
  73
370
  74
368
  0
VERTEX
  8
Meshes
 10
0
 20
0
 30
0
 70
128
  71
371
  72
373
  73
367
  74
369
  0
VERTEX
  8
Meshes
 10
0
 20
0
 30
0
 70
128
  71
372
  72
374
  73
376
  74
370
  0
VERTEX
  8
Meshes
 10
0
 20
0
 30
0
 70
128
  71
377
  72
375
  73
373
  74
371
  0
VERTEX
  8
Meshes
 10
0
 20
0
 30
0
 70
128
  71
314
  72
376
  73
374
  74
378
  0
VERTEX
  8
Meshes
 10
0
 20
0
 30
0
 70
128
  71
375
  72
377
  73
315
  74
379
  0
VERTEX
  8
Meshes
 10
0
 20
0
 30
0
 70
128
  71
316
  72
378
  73
374
  74
354
  0
VERTEX
  8
Meshes
 10
0
 20
0
 30
0
 70
128
  71
375
  72
379
  73
317
  74
355
  0
VERTEX
  8
Meshes
 10
0
 20
0
 30
0
 70
128
  71
354
  72
374
  73
372
  74
356
  0
VERTEX
  8
Meshes
 10
0
 20
0
 30
0
 70
128
  71
373
  72
375
  73
355
  74
357
  0
VERTEX
  8
Meshes
 10
0
 20
0
 30
0
 70
128
  71
356
  72
372
  73
366
  74
358
  0
VERTEX
  8
Meshes
 10
0
 20
0
 30
0
 70
128
  71
367
  72
373
  73
357
  74
359
  0
VERTEX
  8
Meshes
 10
0
 20
0
 30
0
 70
128
  71
358
  72
366
  73
364
  74
360
  0
VERTEX
  8
Meshes
 10
0
 20
0
 30
0
 70
128
  71
365
  72
367
  73
359
  74
361
  0
VERTEX
  8
Meshes
 10
0
 20
0
 30
0
 70
128
  71
290
  72
360
  73
364
  74
292
  0
VERTEX
  8
Meshes
 10
0
 20
0
 30
0
 70
128
  71
365
  72
361
  73
291
  74
293
  0
VERTEX
  8
Meshes
 10
0
 20
0
 30
0
 70
128
  71
74
  72
302
  73
358
  74
360
  0
VERTEX
  8
Meshes
 10
0
 20
0
 30
0
 70
128
  71
359
  72
302
  73
74
  74
361
  0
VERTEX
  8
Meshes
 10
0
 20
0
 30
0
 70
128
  71
284
  72
290
  73
288
  74
286
  0
VERTEX
  8
Meshes
 10
0
 20
0
 30
0
 70
128
  71
289
  72
291
  73
285
  74
287
  0
VERTEX
  8
Meshes
 10
0
 20
0
 30
0
 70
128
  71
284
  72
74
  73
360
  74
290
  0
VERTEX
  8
Meshes
 10
0
 20
0
 30
0
 70
128
  71
361
  72
74
  73
285
  74
291
  0
VERTEX
  8
Meshes
 10
0
 20
0
 30
0
 70
128
  71
73
  74
284
  72
74
  73
284
  0
VERTEX
  8
Meshes
 10
0
 20
0
 30
0
 70
128
  71
74
  74
285
  72
73
  73
285
  0
VERTEX
  8
Meshes
 10
0
 20
0
 30
0
 70
128
  71
294
  72
362
  73
310
  74
296
  0
VERTEX
  8
Meshes
 10
0
 20
0
 30
0
 70
128
  71
311
  72
363
  73
295
  74
297
  0
VERTEX
  8
Meshes
 10
0
 20
0
 30
0
 70
128
  71
310
  72
362
  73
368
  74
312
  0
VERTEX
  8
Meshes
 10
0
 20
0
 30
0
 70
128
  71
369
  72
363
  73
311
  74
313
  0
VERTEX
  8
Meshes
 10
0
 20
0
 30
0
 70
128
  71
312
  72
368
  73
370
  74
382
  0
VERTEX
  8
Meshes
 10
0
 20
0
 30
0
 70
128
  71
371
  72
369
  73
313
  74
383
  0
VERTEX
  8
Meshes
 10
0
 20
0
 30
0
 70
128
  71
314
  72
382
  73
370
  74
376
  0
VERTEX
  8
Meshes
 10
0
 20
0
 30
0
 70
128
  71
371
  72
383
  73
315
  74
377
  0
VERTEX
  8
Meshes
 10
0
 20
0
 30
0
 70
128
  71
348
  72
384
  73
386
  74
350
  0
VERTEX
  8
Meshes
 10
0
 20
0
 30
0
 70
128
  71
387
  72
385
  73
349
  74
351
  0
VERTEX
  8
Meshes
 10
0
 20
0
 30
0
 70
128
  71
318
  72
320
  73
386
  74
384
  0
VERTEX
  8
Meshes
 10
0
 20
0
 30
0
 70
128
  71
387
  72
321
  73
319
  74
385
  0
VERTEX
  8
Meshes
 10
0
 20
0
 30
0
 70
128
  71
298
  72
318
  73
384
  74
300
  0
VERTEX
  8
Meshes
 10
0
 20
0
 30
0
 70
128
  71
385
  72
319
  73
299
  74
301
  0
VERTEX
  8
Meshes
 10
0
 20
0
 30
0
 70
128
  71
300
  72
384
  73
342
  74
344
  0
VERTEX
  8
Meshes
 10
0
 20
0
 30
0
 70
128
  71
343
  72
385
  73
301
  74
345
  0
VERTEX
  8
Meshes
 10
0
 20
0
 30
0
 70
128
  71
342
  74
348
  72
384
  73
348
  0
VERTEX
  8
Meshes
 10
0
 20
0
 30
0
 70
128
  71
385
  74
349
  72
343
  73
349
  0
VERTEX
  8
Meshes
 10
0
 20
0
 30
0
 70
128
  71
300
  74
346
  72
344
  73
346
  0
VERTEX
  8
Meshes
 10
0
 20
0
 30
0
 70
128
  71
345
  74
347
  72
301
  73
347
  0
VERTEX
  8
Meshes
 10
0
 20
0
 30
0
 70
128
  71
314
  72
378
  73
380
  74
322
  0
VERTEX
  8
Meshes
 10
0
 20
0
 30
0
 70
128
  71
381
  72
379
  73
315
  74
323
  0
VERTEX
  8
Meshes
 10
0
 20
0
 30
0
 70
128
  71
316
  72
324
  73
380
  74
378
  0
VERTEX
  8
Meshes
 10
0
 20
0
 30
0
 70
128
  71
381
  72
325
  73
317
  74
379
  0
VERTEX
  8
Meshes
 10
0
 20
0
 30
0
 70
128
  71
320
  72
322
  73
380
  74
386
  0
VERTEX
  8
Meshes
 10
0
 20
0
 30
0
 70
128
  71
381
  72
323
  73
321
  74
387
  0
VERTEX
  8
Meshes
 10
0
 20
0
 30
0
 70
128
  71
350
  72
386
  73
380
  74
352
  0
VERTEX
  8
Meshes
 10
0
 20
0
 30
0
 70
128
  71
381
  72
387
  73
351
  74
353
  0
VERTEX
  8
Meshes
 10
0
 20
0
 30
0
 70
128
  71
324
  74
380
  72
352
  73
380
  0
VERTEX
  8
Meshes
 10
0
 20
0
 30
0
 70
128
  71
353
  74
381
  72
325
  73
381
  0
VERTEX
  8
Meshes
 10
0
 20
0
 30
0
 70
128
  71
400
  72
402
  73
414
  74
388
  0
VERTEX
  8
Meshes
 10
0
 20
0
 30
0
 70
128
  71
415
  72
403
  73
401
  74
389
  0
VERTEX
  8
Meshes
 10
0
 20
0
 30
0
 70
128
  71
400
  72
398
  73
404
  74
402
  0
VERTEX
  8
Meshes
 10
0
 20
0
 30
0
 70
128
  71
405
  72
399
  73
401
  74
403
  0
VERTEX
  8
Meshes
 10
0
 20
0
 30
0
 70
128
  71
398
  72
396
  73
406
  74
404
  0
VERTEX
  8
Meshes
 10
0
 20
0
 30
0
 70
128
  71
407
  72
397
  73
399
  74
405
  0
VERTEX
  8
Meshes
 10
0
 20
0
 30
0
 70
128
  71
396
  72
394
  73
408
  74
406
  0
VERTEX
  8
Meshes
 10
0
 20
0
 30
0
 70
128
  71
409
  72
395
  73
397
  74
407
  0
VERTEX
  8
Meshes
 10
0
 20
0
 30
0
 70
128
  71
394
  72
392
  73
410
  74
408
  0
VERTEX
  8
Meshes
 10
0
 20
0
 30
0
 70
128
  71
411
  72
393
  73
395
  74
409
  0
VERTEX
  8
Meshes
 10
0
 20
0
 30
0
 70
128
  71
392
  72
390
  73
412
  74
410
  0
VERTEX
  8
Meshes
 10
0
 20
0
 30
0
 70
128
  71
413
  72
391
  73
393
  74
411
  0
VERTEX
  8
Meshes
 10
0
 20
0
 30
0
 70
128
  71
410
  72
412
  73
418
  74
420
  0
VERTEX
  8
Meshes
 10
0
 20
0
 30
0
 70
128
  71
419
  72
413
  73
411
  74
421
  0
VERTEX
  8
Meshes
 10
0
 20
0
 30
0
 70
128
  71
408
  72
410
  73
420
  74
422
  0
VERTEX
  8
Meshes
 10
0
 20
0
 30
0
 70
128
  71
421
  72
411
  73
409
  74
423
  0
VERTEX
  8
Meshes
 10
0
 20
0
 30
0
 70
128
  71
406
  72
408
  73
422
  74
424
  0
VERTEX
  8
Meshes
 10
0
 20
0
 30
0
 70
128
  71
423
  72
409
  73
407
  74
425
  0
VERTEX
  8
Meshes
 10
0
 20
0
 30
0
 70
128
  71
404
  72
406
  73
424
  74
426
  0
VERTEX
  8
Meshes
 10
0
 20
0
 30
0
 70
128
  71
425
  72
407
  73
405
  74
427
  0
VERTEX
  8
Meshes
 10
0
 20
0
 30
0
 70
128
  71
402
  72
404
  73
426
  74
428
  0
VERTEX
  8
Meshes
 10
0
 20
0
 30
0
 70
128
  71
427
  72
405
  73
403
  74
429
  0
VERTEX
  8
Meshes
 10
0
 20
0
 30
0
 70
128
  71
402
  72
428
  73
416
  74
414
  0
VERTEX
  8
Meshes
 10
0
 20
0
 30
0
 70
128
  71
417
  72
429
  73
403
  74
415
  0
VERTEX
  8
Meshes
 10
0
 20
0
 30
0
 70
128
  71
318
  72
442
  73
444
  74
320
  0
VERTEX
  8
Meshes
 10
0
 20
0
 30
0
 70
128
  71
445
  72
443
  73
319
  74
321
  0
VERTEX
  8
Meshes
 10
0
 20
0
 30
0
 70
128
  71
320
  72
444
  73
412
  74
390
  0
VERTEX
  8
Meshes
 10
0
 20
0
 30
0
 70
128
  71
413
  72
445
  73
321
  74
391
  0
VERTEX
  8
Meshes
 10
0
 20
0
 30
0
 70
128
  71
310
  72
312
  73
442
  74
318
  0
VERTEX
  8
Meshes
 10
0
 20
0
 30
0
 70
128
  71
443
  72
313
  73
311
  74
319
  0
VERTEX
  8
Meshes
 10
0
 20
0
 30
0
 70
128
  71
382
  72
388
  73
414
  74
430
  0
VERTEX
  8
Meshes
 10
0
 20
0
 30
0
 70
128
  71
415
  72
389
  73
383
  74
431
  0
VERTEX
  8
Meshes
 10
0
 20
0
 30
0
 70
128
  71
412
  72
444
  73
440
  74
418
  0
VERTEX
  8
Meshes
 10
0
 20
0
 30
0
 70
128
  71
441
  72
445
  73
413
  74
419
  0
VERTEX
  8
Meshes
 10
0
 20
0
 30
0
 70
128
  71
438
  72
440
  73
444
  74
446
  0
VERTEX
  8
Meshes
 10
0
 20
0
 30
0
 70
128
  71
445
  72
441
  73
439
  74
447
  0
VERTEX
  8
Meshes
 10
0
 20
0
 30
0
 70
128
  71
434
  72
436
  73
438
  74
446
  0
VERTEX
  8
Meshes
 10
0
 20
0
 30
0
 70
128
  71
439
  72
437
  73
435
  74
447
  0
VERTEX
  8
Meshes
 10
0
 20
0
 30
0
 70
128
  71
432
  72
434
  73
446
  74
448
  0
VERTEX
  8
Meshes
 10
0
 20
0
 30
0
 70
128
  71
447
  72
435
  73
433
  74
449
  0
VERTEX
  8
Meshes
 10
0
 20
0
 30
0
 70
128
  71
430
  72
450
  73
432
  74
448
  0
VERTEX
  8
Meshes
 10
0
 20
0
 30
0
 70
128
  71
433
  72
451
  73
431
  74
449
  0
VERTEX
  8
Meshes
 10
0
 20
0
 30
0
 70
128
  71
414
  72
416
  73
450
  74
430
  0
VERTEX
  8
Meshes
 10
0
 20
0
 30
0
 70
128
  71
451
  72
417
  73
415
  74
431
  0
VERTEX
  8
Meshes
 10
0
 20
0
 30
0
 70
128
  71
312
  72
382
  73
430
  74
448
  0
VERTEX
  8
Meshes
 10
0
 20
0
 30
0
 70
128
  71
431
  72
383
  73
313
  74
449
  0
VERTEX
  8
Meshes
 10
0
 20
0
 30
0
 70
128
  71
312
  72
448
  73
446
  74
442
  0
VERTEX
  8
Meshes
 10
0
 20
0
 30
0
 70
128
  71
447
  72
449
  73
313
  74
443
  0
VERTEX
  8
Meshes
 10
0
 20
0
 30
0
 70
128
  71
442
  74
444
  72
446
  73
444
  0
VERTEX
  8
Meshes
 10
0
 20
0
 30
0
 70
128
  71
447
  74
445
  72
443
  73
445
  0
VERTEX
  8
Meshes
 10
0
 20
0
 30
0
 70
128
  71
416
  72
476
  73
452
  74
450
  0
VERTEX
  8
Meshes
 10
0
 20
0
 30
0
 70
128
  71
453
  72
477
  73
417
  74
451
  0
VERTEX
  8
Meshes
 10
0
 20
0
 30
0
 70
128
  71
450
  72
452
  73
462
  74
432
  0
VERTEX
  8
Meshes
 10
0
 20
0
 30
0
 70
128
  71
463
  72
453
  73
451
  74
433
  0
VERTEX
  8
Meshes
 10
0
 20
0
 30
0
 70
128
  71
432
  72
462
  73
460
  74
434
  0
VERTEX
  8
Meshes
 10
0
 20
0
 30
0
 70
128
  71
461
  72
463
  73
433
  74
435
  0
VERTEX
  8
Meshes
 10
0
 20
0
 30
0
 70
128
  71
434
  72
460
  73
458
  74
436
  0
VERTEX
  8
Meshes
 10
0
 20
0
 30
0
 70
128
  71
459
  72
461
  73
435
  74
437
  0
VERTEX
  8
Meshes
 10
0
 20
0
 30
0
 70
128
  71
436
  72
458
  73
456
  74
438
  0
VERTEX
  8
Meshes
 10
0
 20
0
 30
0
 70
128
  71
457
  72
459
  73
437
  74
439
  0
VERTEX
  8
Meshes
 10
0
 20
0
 30
0
 70
128
  71
438
  72
456
  73
454
  74
440
  0
VERTEX
  8
Meshes
 10
0
 20
0
 30
0
 70
128
  71
455
  72
457
  73
439
  74
441
  0
VERTEX
  8
Meshes
 10
0
 20
0
 30
0
 70
128
  71
440
  72
454
  73
474
  74
418
  0
VERTEX
  8
Meshes
 10
0
 20
0
 30
0
 70
128
  71
475
  72
455
  73
441
  74
419
  0
VERTEX
  8
Meshes
 10
0
 20
0
 30
0
 70
128
  71
428
  72
464
  73
476
  74
416
  0
VERTEX
  8
Meshes
 10
0
 20
0
 30
0
 70
128
  71
477
  72
465
  73
429
  74
417
  0
VERTEX
  8
Meshes
 10
0
 20
0
 30
0
 70
128
  71
426
  72
466
  73
464
  74
428
  0
VERTEX
  8
Meshes
 10
0
 20
0
 30
0
 70
128
  71
465
  72
467
  73
427
  74
429
  0
VERTEX
  8
Meshes
 10
0
 20
0
 30
0
 70
128
  71
424
  72
468
  73
466
  74
426
  0
VERTEX
  8
Meshes
 10
0
 20
0
 30
0
 70
128
  71
467
  72
469
  73
425
  74
427
  0
VERTEX
  8
Meshes
 10
0
 20
0
 30
0
 70
128
  71
422
  72
470
  73
468
  74
424
  0
VERTEX
  8
Meshes
 10
0
 20
0
 30
0
 70
128
  71
469
  72
471
  73
423
  74
425
  0
VERTEX
  8
Meshes
 10
0
 20
0
 30
0
 70
128
  71
420
  72
472
  73
470
  74
422
  0
VERTEX
  8
Meshes
 10
0
 20
0
 30
0
 70
128
  71
471
  72
473
  73
421
  74
423
  0
VERTEX
  8
Meshes
 10
0
 20
0
 30
0
 70
128
  71
418
  72
474
  73
472
  74
420
  0
VERTEX
  8
Meshes
 10
0
 20
0
 30
0
 70
128
  71
473
  72
475
  73
419
  74
421
  0
VERTEX
  8
Meshes
 10
0
 20
0
 30
0
 70
128
  71
458
  72
478
  73
480
  74
456
  0
VERTEX
  8
Meshes
 10
0
 20
0
 30
0
 70
128
  71
481
  72
479
  73
459
  74
457
  0
VERTEX
  8
Meshes
 10
0
 20
0
 30
0
 70
128
  71
478
  72
484
  73
482
  74
480
  0
VERTEX
  8
Meshes
 10
0
 20
0
 30
0
 70
128
  71
483
  72
485
  73
479
  74
481
  0
VERTEX
  8
Meshes
 10
0
 20
0
 30
0
 70
128
  71
484
  72
486
  73
488
  74
482
  0
VERTEX
  8
Meshes
 10
0
 20
0
 30
0
 70
128
  71
489
  72
487
  73
485
  74
483
  0
VERTEX
  8
Meshes
 10
0
 20
0
 30
0
 70
128
  71
486
  72
492
  73
490
  74
488
  0
VERTEX
  8
Meshes
 10
0
 20
0
 30
0
 70
128
  71
491
  72
493
  73
487
  74
489
  0
VERTEX
  8
Meshes
 10
0
 20
0
 30
0
 70
128
  71
464
  72
492
  73
486
  74
476
  0
VERTEX
  8
Meshes
 10
0
 20
0
 30
0
 70
128
  71
487
  72
493
  73
465
  74
477
  0
VERTEX
  8
Meshes
 10
0
 20
0
 30
0
 70
128
  71
452
  72
476
  73
486
  74
484
  0
VERTEX
  8
Meshes
 10
0
 20
0
 30
0
 70
128
  71
487
  72
477
  73
453
  74
485
  0
VERTEX
  8
Meshes
 10
0
 20
0
 30
0
 70
128
  71
452
  72
484
  73
478
  74
462
  0
VERTEX
  8
Meshes
 10
0
 20
0
 30
0
 70
128
  71
479
  72
485
  73
453
  74
463
  0
VERTEX
  8
Meshes
 10
0
 20
0
 30
0
 70
128
  71
458
  72
460
  73
462
  74
478
  0
VERTEX
  8
Meshes
 10
0
 20
0
 30
0
 70
128
  71
463
  72
461
  73
459
  74
479
  0
VERTEX
  8
Meshes
 10
0
 20
0
 30
0
 70
128
  71
454
  72
456
  73
480
  74
474
  0
VERTEX
  8
Meshes
 10
0
 20
0
 30
0
 70
128
  71
481
  72
457
  73
455
  74
475
  0
VERTEX
  8
Meshes
 10
0
 20
0
 30
0
 70
128
  71
472
  72
474
  73
480
  74
482
  0
VERTEX
  8
Meshes
 10
0
 20
0
 30
0
 70
128
  71
481
  72
475
  73
473
  74
483
  0
VERTEX
  8
Meshes
 10
0
 20
0
 30
0
 70
128
  71
470
  72
472
  73
482
  74
488
  0
VERTEX
  8
Meshes
 10
0
 20
0
 30
0
 70
128
  71
483
  72
473
  73
471
  74
489
  0
VERTEX
  8
Meshes
 10
0
 20
0
 30
0
 70
128
  71
468
  72
470
  73
488
  74
490
  0
VERTEX
  8
Meshes
 10
0
 20
0
 30
0
 70
128
  71
489
  72
471
  73
469
  74
491
  0
VERTEX
  8
Meshes
 10
0
 20
0
 30
0
 70
128
  71
466
  72
468
  73
490
  74
492
  0
VERTEX
  8
Meshes
 10
0
 20
0
 30
0
 70
128
  71
491
  72
469
  73
467
  74
493
  0
VERTEX
  8
Meshes
 10
0
 20
0
 30
0
 70
128
  71
464
  74
492
  72
466
  73
492
  0
VERTEX
  8
Meshes
 10
0
 20
0
 30
0
 70
128
  71
467
  74
493
  72
465
  73
493
  0
VERTEX
  8
Meshes
 10
0
 20
0
 30
0
 70
128
  71
392
  72
502
  73
504
  74
390
  0
VERTEX
  8
Meshes
 10
0
 20
0
 30
0
 70
128
  71
505
  72
503
  73
393
  74
391
  0
VERTEX
  8
Meshes
 10
0
 20
0
 30
0
 70
128
  71
394
  72
500
  73
502
  74
392
  0
VERTEX
  8
Meshes
 10
0
 20
0
 30
0
 70
128
  71
503
  72
501
  73
395
  74
393
  0
VERTEX
  8
Meshes
 10
0
 20
0
 30
0
 70
128
  71
396
  72
498
  73
500
  74
394
  0
VERTEX
  8
Meshes
 10
0
 20
0
 30
0
 70
128
  71
501
  72
499
  73
397
  74
395
  0
VERTEX
  8
Meshes
 10
0
 20
0
 30
0
 70
128
  71
398
  72
496
  73
498
  74
396
  0
VERTEX
  8
Meshes
 10
0
 20
0
 30
0
 70
128
  71
499
  72
497
  73
399
  74
397
  0
VERTEX
  8
Meshes
 10
0
 20
0
 30
0
 70
128
  71
400
  72
494
  73
496
  74
398
  0
VERTEX
  8
Meshes
 10
0
 20
0
 30
0
 70
128
  71
497
  72
495
  73
401
  74
399
  0
VERTEX
  8
Meshes
 10
0
 20
0
 30
0
 70
128
  71
388
  72
506
  73
494
  74
400
  0
VERTEX
  8
Meshes
 10
0
 20
0
 30
0
 70
128
  71
495
  72
507
  73
389
  74
401
  0
VERTEX
  8
Meshes
 10
0
 20
0
 30
0
 70
128
  71
494
  72
506
  73
504
  74
502
  0
VERTEX
  8
Meshes
 10
0
 20
0
 30
0
 70
128
  71
505
  72
507
  73
495
  74
503
  0
VERTEX
  8
Meshes
 10
0
 20
0
 30
0
 70
128
  71
494
  72
502
  73
500
  74
496
  0
VERTEX
  8
Meshes
 10
0
 20
0
 30
0
 70
128
  71
501
  72
503
  73
495
  74
497
  0
VERTEX
  8
Meshes
 10
0
 20
0
 30
0
 70
128
  71
496
  74
498
  72
500
  73
498
  0
VERTEX
  8
Meshes
 10
0
 20
0
 30
0
 70
128
  71
501
  74
499
  72
497
  73
499
  0
VERTEX
  8
Meshes
 10
0
 20
0
 30
0
 70
128
  71
314
  72
506
  73
388
  74
382
  0
VERTEX
  8
Meshes
 10
0
 20
0
 30
0
 70
128
  71
389
  72
507
  73
315
  74
383
  0
VERTEX
  8
Meshes
 10
0
 20
0
 30
0
 70
128
  71
314
  72
322
  73
504
  74
506
  0
VERTEX
  8
Meshes
 10
0
 20
0
 30
0
 70
128
  71
505
  72
323
  73
315
  74
507
  0
VERTEX
  8
Meshes
 10
0
 20
0
 30
0
 70
128
  71
320
  72
390
  73
504
  74
322
  0
VERTEX
  8
Meshes
 10
0
 20
0
 30
0
 70
128
  71
505
  72
391
  73
321
  74
323
  0
SEQEND
  0
ENDSEC
  0
EOF
